<?xml version="1.0" encoding="UTF-8"?>
<svg version="1.1" xmlns="http://www.w3.org/2000/svg" width="904" height="276">
<path d="M0 0 C3.12766516 2.59867317 5.78643266 5.50991928 8.3359375 8.671875 C9.62927081 10.32415899 9.62927081 10.32415899 11.5625 12.1875 C12.8825 9.8775 14.2025 7.5675 15.5625 5.1875 C16.2225 5.1875 16.8825 5.1875 17.5625 5.1875 C17.80355469 4.58164063 18.04460937 3.97578125 18.29296875 3.3515625 C19.83406589 0.7245846 21.19347565 -0.04040328 23.875 -1.4375 C24.63425781 -1.84226562 25.39351562 -2.24703125 26.17578125 -2.6640625 C35.19080034 -7.00189493 46.15882424 -8.19462444 55.96484375 -5.72265625 C68.98845051 -1.15949779 77.69112392 4.95019997 83.9375 17.5625 C89.48234376 29.55051416 88.84571509 42.36038857 88.79296875 55.2578125 C88.79177486 57.19025644 88.79132423 59.12270097 88.7915802 61.05514526 C88.79002454 65.08107192 88.7817995 69.10690848 88.76831055 73.1328125 C88.75120736 78.30360862 88.74749994 83.47430714 88.74825573 88.64512825 C88.74798469 92.62379901 88.74251599 96.60244827 88.73525429 100.58111191 C88.73206592 102.48938713 88.73009982 104.39766479 88.72936058 106.30594254 C88.72720526 108.95807366 88.71848209 111.61009854 88.70776367 114.26220703 C88.70821686 115.05484451 88.70867004 115.84748199 88.70913696 116.66413879 C88.67698579 122.07301421 88.67698579 122.07301421 87.5625 123.1875 C85.27098583 123.27540975 82.97677476 123.29444038 80.68359375 123.28515625 C79.65360008 123.28303383 79.65360008 123.28303383 78.60279846 123.28086853 C76.40182199 123.27525479 74.20094591 123.26270007 72 123.25 C70.51106917 123.24498676 69.02213676 123.24042355 67.53320312 123.23632812 C63.87626925 123.22528093 60.21939442 123.20800713 56.5625 123.1875 C56.55441315 122.25170609 56.54632629 121.31591217 56.53799438 120.35176086 C56.46011227 111.48186111 56.37227145 102.61210686 56.27497292 93.74239826 C56.22527709 89.18368311 56.17894741 84.62498818 56.140625 80.06616211 C56.10343132 75.65696815 56.05698493 71.24795542 56.00443649 66.83891869 C55.98607176 65.16667078 55.97089966 63.49438431 55.95915604 61.8220768 C56.5760632 42.20458873 56.5760632 42.20458873 48.5625 25.1875 C43.84571312 21.75710954 39.2000972 21.47911082 33.5625 22.1875 C28.05566564 23.83955031 24.53540875 26.28065753 21.5625 31.1875 C17.38391033 39.58688731 16.4685709 47.59529949 16.35717773 56.88867188 C16.34727814 57.61160431 16.33737854 58.33453674 16.32717896 59.07937622 C16.29591653 61.43830231 16.27094808 63.79724846 16.24609375 66.15625 C16.22549365 67.80391932 16.20449644 69.45158372 16.18312073 71.09924316 C16.12821532 75.41292305 16.07866847 79.7266481 16.03027344 84.04040527 C15.97982655 88.45145638 15.92426214 92.86244277 15.86914062 97.2734375 C15.76194538 105.91140344 15.66041644 114.54942391 15.5625 123.1875 C10.88110746 123.21215288 6.19975241 123.23033739 1.51831055 123.24243164 C-0.07544614 123.24747157 -1.66919819 123.2543035 -3.26293945 123.26293945 C-5.54900253 123.27501999 -7.83500467 123.28073155 -10.12109375 123.28515625 C-10.83776718 123.29031754 -11.55444061 123.29547882 -12.29283142 123.30079651 C-14.00813672 123.30099263 -15.72331266 123.24942007 -17.4375 123.1875 C-19.1801743 121.4448257 -18.56749788 119.1775188 -18.58094788 116.85452271 C-18.58041916 116.08993744 -18.57989044 115.32535217 -18.5793457 114.53759766 C-18.58282013 113.73582092 -18.58629456 112.93404419 -18.58987427 112.10797119 C-18.59724743 110.35916467 -18.60258446 108.6103487 -18.60616493 106.8615303 C-18.61332152 104.08594423 -18.62898614 101.31053588 -18.64750671 98.53500366 C-18.69998432 90.64038676 -18.74786639 82.7458614 -18.76342773 74.85107422 C-18.77356352 70.02567852 -18.80303962 65.20072142 -18.84474754 60.37549973 C-18.85699444 58.54250802 -18.86219043 56.70945413 -18.85994911 54.87642288 C-18.49466663 38.52802712 -18.49466663 38.52802712 -25.9375 24.5625 C-31.52317569 21.49037837 -38.08702748 21.27373477 -44.1875 22.9375 C-50.84043057 26.63357254 -53.64930127 31.22772702 -56.4375 38.1875 C-57.5192759 42.44434441 -57.60155008 46.62527954 -57.62695312 50.99121094 C-57.63524643 51.76086685 -57.64353973 52.53052277 -57.65208435 53.32350159 C-57.66942687 54.98766829 -57.68460928 56.65185862 -57.69786072 58.31606293 C-57.71894651 60.9463884 -57.74596043 63.57659405 -57.77453613 66.20684814 C-57.84424452 72.73413097 -57.90390082 79.26149831 -57.96356201 85.78887939 C-58.01440822 91.31428552 -58.06917944 96.83962444 -58.12937927 102.36493683 C-58.15602549 104.96248912 -58.17678982 107.56004751 -58.1973877 110.15765381 C-58.21398097 111.7388947 -58.23085194 113.32013272 -58.24804688 114.90136719 C-58.25223129 115.62862503 -58.25641571 116.35588287 -58.26072693 117.10517883 C-58.32364583 122.07364583 -58.32364583 122.07364583 -59.4375 123.1875 C-61.71697792 123.2877093 -63.99957135 123.31831303 -66.28125 123.3203125 C-67.30768616 123.32174759 -67.30768616 123.32174759 -68.3548584 123.32321167 C-69.80411877 123.3238933 -71.25338218 123.32204023 -72.70263672 123.31787109 C-74.92812928 123.31252252 -77.15342001 123.3178166 -79.37890625 123.32421875 C-80.78385461 123.32355797 -82.18880285 123.3222768 -83.59375 123.3203125 C-84.88087891 123.31918457 -86.16800781 123.31805664 -87.49414062 123.31689453 C-90.4375 123.1875 -90.4375 123.1875 -91.4375 122.1875 C-91.53563777 120.59784653 -91.56381904 119.00382781 -91.56448364 117.41114807 C-91.56730347 116.37772278 -91.57012329 115.34429749 -91.57302856 114.27955627 C-91.56999222 112.56445107 -91.56999222 112.56445107 -91.56689453 110.81469727 C-91.56952301 109.01976334 -91.56952301 109.01976334 -91.57220459 107.18856812 C-91.57586294 103.89725371 -91.57498945 100.60600179 -91.5718255 97.31469083 C-91.56930107 93.87629182 -91.57163973 90.43789557 -91.57321167 86.99949646 C-91.57503337 81.22321084 -91.57262731 75.44693798 -91.56787109 69.6706543 C-91.56243104 62.9865687 -91.56418926 56.30251362 -91.5696975 49.61842877 C-91.57423169 43.88763656 -91.57487759 38.15685356 -91.57225883 32.42606014 C-91.57069742 28.99986613 -91.57049854 25.57368646 -91.57379532 22.14749336 C-91.57721327 18.32821588 -91.57247925 14.50897272 -91.56689453 10.68969727 C-91.56891876 9.54831802 -91.57094299 8.40693878 -91.57302856 7.23097229 C-91.57020874 6.19472717 -91.56738892 5.15848206 -91.56448364 4.09083557 C-91.56410662 3.18693368 -91.56372959 2.28303179 -91.56334114 1.35173893 C-91.4375 -0.8125 -91.4375 -0.8125 -90.4375 -2.8125 C-80.5375 -2.8125 -70.6375 -2.8125 -60.4375 -2.8125 C-58.94251087 0.17747825 -59.32172554 2.88792775 -59.4375 6.1875 C-59.7675 7.1775 -60.0975 8.1675 -60.4375 9.1875 C-59.7775 9.1875 -59.1175 9.1875 -58.4375 9.1875 C-58.19 8.5996875 -57.9425 8.011875 -57.6875 7.40625 C-53.69136526 0.31311084 -44.94522762 -3.59240884 -37.4375 -5.8125 C-24.70108921 -8.37699352 -10.89693861 -7.71263397 0 0 Z " fill="#D20014" transform="translate(616.4375,62.8125)"/>
<path d="M0 0 C8.91 0 17.82 0 27 0 C33.59969962 14.89646487 40.09212271 29.83282062 46.5 44.8125 C52.85023386 59.65660108 59.22123666 74.49140541 65.625 89.3125 C66.01810364 90.22246735 66.41120728 91.13243469 66.81622314 92.06997681 C70.69106433 101.03893323 74.56918796 110.00646545 78.45144653 118.97221375 C79.91444184 122.35092491 81.37696532 125.72984026 82.83953857 129.10873413 C83.83847067 131.41564017 84.838376 133.72212244 85.83837891 136.02856445 C87.30024059 139.40125042 88.75281061 142.77783591 90.20251465 146.15576172 C90.98666448 147.96916071 91.786663 149.77567993 92.58691406 151.58203125 C93.05581055 152.65839844 93.52470703 153.73476562 94.0078125 154.84375 C94.62487061 156.23883789 94.62487061 156.23883789 95.25439453 157.66210938 C96 160 96 160 95 163 C82.79 163 70.58 163 58 163 C55.03323586 156.47311889 52.17571854 150.13780401 49.72265625 143.44140625 C49.2910041 142.27989044 49.2910041 142.27989044 48.85063171 141.09490967 C48.23643905 139.44184277 47.6238649 137.78817372 47.01281738 136.13394165 C45.36850576 131.68463716 43.71007337 127.24061066 42.05078125 122.796875 C41.54404373 121.43934868 41.54404373 121.43934868 41.02706909 120.05439758 C37.6804557 111.10943338 34.22855124 102.2068311 30.75 93.3125 C24.7299856 77.91343316 18.82841754 62.47258767 13 47 C9.1341224 55.10793365 5.9550332 63.3571554 2.9375 71.8125 C-1.04990444 82.87424115 -5.2393655 93.84005019 -9.625 104.75 C-9.88870392 105.4068277 -10.15240784 106.0636554 -10.42410278 106.74038696 C-14.74620573 117.49241147 -14.74620573 117.49241147 -16 120 C-14.95042114 119.86368164 -14.95042114 119.86368164 -13.87963867 119.72460938 C-10.64979904 119.30926441 -7.41870454 118.90458399 -4.1875 118.5 C-3.08728516 118.35691406 -1.98707031 118.21382813 -0.85351562 118.06640625 C5.36261514 117.29626616 11.4139865 116.85152799 17.67895508 116.97167969 C19.745471 116.99689436 21.81261796 116.88305691 23.875 116.75 C27.77431474 118.3097259 27.94323904 119.28762981 29.5625 123.0625 C30.39302394 125.36858814 31.20354571 127.68192471 32 130 C32.54051819 131.40740577 33.0876477 132.81228643 33.640625 134.21484375 C34.19857163 135.64297346 34.75587071 137.07135633 35.3125 138.5 C35.5794165 139.18199463 35.84633301 139.86398926 36.12133789 140.56665039 C37.40669362 143.97015731 38 146.30593131 38 150 C36.99348389 149.83991455 35.98696777 149.6798291 34.94995117 149.51489258 C16.42149227 147.09963083 -4.07175445 147.77977149 -22 153 C-22.8544873 153.24137695 -23.70897461 153.48275391 -24.58935547 153.73144531 C-35.99619438 157.02606363 -46.39532704 161.33348857 -56.7265625 167.1796875 C-61.45085198 169.80679835 -64.64730603 170.10099423 -70 170 C-71.11887214 166.64338359 -70.97984582 166.29117773 -69.64819336 163.22558594 C-69.3271312 162.47339783 -69.00606903 161.72120972 -68.67527771 160.94622803 C-68.3170845 160.13381653 -67.9588913 159.32140503 -67.58984375 158.484375 C-67.22532608 157.63635315 -66.86080841 156.7883313 -66.48524475 155.91461182 C-65.31166097 153.18908434 -64.12509223 150.46944899 -62.9375 147.75 C-61.40163296 144.20455427 -59.87080049 140.6569432 -58.33984375 137.109375 C-57.77880699 135.81367081 -57.77880699 135.81367081 -57.20643616 134.49179077 C-54.42814187 128.05609807 -51.78412739 121.57755436 -49.22412109 115.05224609 C-47.75181659 111.38117492 -46.11705329 107.8036533 -44.45703125 104.21484375 C-38.66667011 91.43879223 -33.33613447 78.44647818 -27.87841797 65.52587891 C-22.7726397 53.44609943 -17.63573017 41.3795692 -12.5 29.3125 C-12.05312836 28.2624176 -11.60625671 27.21233521 -11.14584351 26.13043213 C-9.85778961 23.10382054 -8.56956681 20.07728093 -7.28125 17.05078125 C-6.89415359 16.14132248 -6.50705719 15.23186371 -6.10823059 14.29484558 C-5.56062325 13.00868095 -5.56062325 13.00868095 -5.00195312 11.6965332 C-4.68649536 10.95554886 -4.3710376 10.21456451 -4.04602051 9.4511261 C-2.70093941 6.29921525 -1.34993018 3.14983709 0 0 Z " fill="#D20114" transform="translate(127,23)"/>
<path d="M0 0 C9.34685113 8.67117515 14.98952337 18.77811122 18.875 30.875 C19.12121094 31.60847656 19.36742187 32.34195313 19.62109375 33.09765625 C21.0474148 38.20290195 21.07323129 43.3590641 21.125 48.625 C21.1391394 49.72569824 21.1391394 49.72569824 21.15356445 50.84863281 C21.12692419 55.24578467 20.56082853 57.66042866 18.875 61.875 C-28.15 62.37 -28.15 62.37 -76.125 62.875 C-69.30276883 75.38242381 -65.17311569 81.21770797 -52.125 85.875 C-39.77210552 88.79242501 -27.84199179 85.22653825 -17.125 78.875 C-13.95017177 76.62616334 -12.28403335 75.11355002 -10.125 71.875 C-5.67926504 73.30858845 -2.99730343 75.55767906 0.375 78.75 C3.77522309 81.94964814 7.19061502 85.0049175 10.875 87.875 C10.46170916 92.69672652 8.37953901 94.85469472 4.875 97.875 C4.25238281 98.473125 3.62976563 99.07125 2.98828125 99.6875 C-10.85809189 112.05982644 -29.32078233 116.40688984 -47.4453125 116.12890625 C-56.24011026 115.52204653 -64.32698274 112.91227135 -72.125 108.875 C-73.30835938 108.27945313 -73.30835938 108.27945313 -74.515625 107.671875 C-90.46632217 98.94413504 -99.81642922 84.3283442 -105.21484375 67.3828125 C-109.36733655 51.37878445 -108.0003142 33.5273703 -100.125 18.875 C-99.70476562 18.07707031 -99.28453125 17.27914062 -98.8515625 16.45703125 C-89.96179516 0.61752867 -76.50874909 -9.50991411 -59.5 -15.375 C-37.71108551 -20.216981 -16.70916655 -14.81441993 0 0 Z M-70 23.875 C-73.28053373 27.85578687 -76.125 31.5589748 -76.125 36.875 C-54.345 36.875 -32.565 36.875 -10.125 36.875 C-11.70836694 27.37479836 -17.49067483 21.51838483 -25.125 15.875 C-40.68201219 6.38551012 -58.04590048 10.74055872 -70 23.875 Z " fill="#D20114" transform="translate(494.125,73.125)"/>
<path d="M0 0 C13.07608452 9.99585185 24.08076123 24.4421452 27.03466797 40.98486328 C29.59314869 60.39870243 26.7441476 77.98393198 15.3203125 94.15234375 C4.1346712 108.68520348 -10.94805426 117.57512387 -28.98828125 120.68359375 C-48.20527658 123.12384713 -65.88018539 117.94759077 -81.1796875 106.21484375 C-82.70588252 104.89026981 -84.20757072 103.53677126 -85.6796875 102.15234375 C-86.37320313 101.51167969 -87.06671875 100.87101562 -87.78125 100.2109375 C-100.16290676 87.61415543 -105.6796875 69.4636854 -105.6796875 52.15234375 C-104.36246617 33.09379765 -96.57394925 17.14899505 -82.6796875 4.15234375 C-75.69425447 -1.87508704 -68.39243552 -5.86816729 -59.6796875 -8.84765625 C-58.74640625 -9.16734375 -57.813125 -9.48703125 -56.8515625 -9.81640625 C-37.57252322 -15.50530309 -16.40371385 -11.31043244 0 0 Z M-69.39453125 31.28515625 C-76.09136549 40.68364734 -77.84473492 49.65550221 -76.6796875 61.15234375 C-75.13833342 67.49165645 -72.64446178 72.94857751 -68.6796875 78.15234375 C-68.0815625 78.99796875 -67.4834375 79.84359375 -66.8671875 80.71484375 C-60.52857779 87.777866 -52.36481229 91.61601122 -42.953125 92.50390625 C-29.66939359 92.796734 -20.10308401 89.45894212 -10.4296875 80.33984375 C-3.57088668 73.15827584 -0.77594747 64.68562741 -0.3671875 54.83984375 C-0.69094842 43.92719631 -4.07477182 34.58301335 -11.94140625 26.9609375 C-22.36098206 18.07894431 -32.11611226 15.85400972 -45.54101562 16.88183594 C-55.40982768 18.13008294 -63.29211944 23.69536845 -69.39453125 31.28515625 Z " fill="#D20114" transform="translate(819.6796875,67.84765625)"/>
<path d="M0 0 C0.73608398 1.89501953 0.73608398 1.89501953 1 4 C-0.45349214 6.4620377 -1.90316964 8.61599693 -3.625 10.875 C-4.06457031 11.47441406 -4.50414062 12.07382813 -4.95703125 12.69140625 C-7.83405514 16.58087257 -10.87347091 20.30911548 -14 24 C-16.38794883 22.83528967 -18.7099118 21.60387654 -21.03125 20.30859375 C-30.00671449 15.46709883 -38.00075667 12.56549568 -48.375 14.6875 C-52.58143377 16.21051912 -56.91095896 17.82191792 -59 22 C-59.544014 27.40596151 -59.544014 27.40596151 -57.625 32.25 C-50.03910491 37.3072634 -40.91689464 39.15211809 -32.1875 41.3125 C-18.30224765 44.92165252 -4.68364497 49.27099096 3.3359375 62.14453125 C8.14038852 71.32750679 8.55296473 82.48202643 5.8125 92.4375 C2.04263392 103.09223887 -5.1463918 110.61454447 -15 116 C-25.07861581 120.09362801 -34.21133053 121.1809851 -45 121.1875 C-46.60101563 121.20586914 -46.60101563 121.20586914 -48.234375 121.22460938 C-58.85849136 121.24443049 -58.85849136 121.24443049 -63 119 C-64.546875 116.76953125 -64.546875 116.76953125 -65.75 113.8125 C-66.47123047 112.09546875 -66.47123047 112.09546875 -67.20703125 110.34375 C-67.47854004 109.67730469 -67.75004883 109.01085937 -68.02978516 108.32421875 C-69.1843677 105.55833405 -70.40829705 102.82762877 -71.63671875 100.09375 C-72.57080338 98.00021895 -73.50439462 95.90646769 -74.4375 93.8125 C-74.89930664 92.78423096 -75.36111328 91.75596191 -75.83691406 90.6965332 C-76.26069336 89.73062256 -76.68447266 88.76471191 -77.12109375 87.76953125 C-77.5070874 86.89917236 -77.89308105 86.02881348 -78.29077148 85.13208008 C-79 83 -79 83 -78 81 C-74.79339492 81.58428379 -73.15263101 82.50809671 -70.8125 84.75 C-62.92619249 91.71540112 -54.64388617 95.01017828 -44.06640625 94.99609375 C-38.01964029 94.6104791 -33.17897213 93.63754135 -28.39453125 89.66796875 C-25.83549491 86.60716058 -26.01317191 82.85937072 -26 79 C-26.35755198 75.58554413 -26.35755198 75.58554413 -28 73 C-30.72689529 71.90591294 -30.72689529 71.90591294 -34 71 C-35.15113281 70.63261719 -36.30226563 70.26523438 -37.48828125 69.88671875 C-38.76279025 69.48624459 -40.0375413 69.08654015 -41.3125 68.6875 C-42.00037598 68.4709375 -42.68825195 68.254375 -43.39697266 68.03125 C-47.07548946 66.8812461 -50.76037192 65.77447515 -54.47265625 64.73828125 C-67.18178825 61.18056503 -79.86133029 57.46831645 -86.89453125 45.359375 C-91.5439785 35.43617311 -91.7680034 25.80789353 -88.875 15.375 C-85.34037773 5.85870926 -77.47595738 -1.82648337 -68.44921875 -6.25 C-65.98902654 -7.26543593 -63.52655595 -8.16484461 -61 -9 C-59.824375 -9.391875 -58.64875 -9.78375 -57.4375 -10.1875 C-39.07242807 -14.52833518 -14.93717341 -12.52593158 0 0 Z " fill="#D30114" transform="translate(300,68)"/>
<path d="M0 0 C0 11.55 0 23.1 0 35 C15.18 35 30.36 35 46 35 C45.17127244 38.31491024 44.60003148 39.93342213 42.85546875 42.6796875 C42.21061523 43.70255859 42.21061523 43.70255859 41.55273438 44.74609375 C41.10220703 45.44863281 40.65167969 46.15117188 40.1875 46.875 C39.74857422 47.56980469 39.30964844 48.26460937 38.85742188 48.98046875 C37.58154487 50.99381403 36.29904113 53.00151116 35 55 C34.45994827 56.02094757 33.91989655 57.04189514 33.36347961 58.09378052 C31 61 31 61 27.70019531 61.68115234 C25.78352051 61.634021 25.78352051 61.634021 23.828125 61.5859375 C23.1457074 61.57744781 22.46328979 61.56895813 21.76019287 61.56021118 C19.5884962 61.52672057 17.42056617 61.45147242 15.25 61.375 C13.77479337 61.34489374 12.2995283 61.31751905 10.82421875 61.29296875 C7.21492956 61.22695085 3.60783258 61.12346917 0 61 C0.06135385 69.35428747 0.13856168 77.70821718 0.23571491 86.06215763 C0.28034099 89.94172631 0.31961379 93.82119187 0.34643555 97.70092773 C0.37254659 101.44884353 0.41300299 105.19636081 0.46318626 108.94402885 C0.47980252 110.37002014 0.49134934 111.79608028 0.49761391 113.22215462 C0.40224917 123.55252886 0.40224917 123.55252886 4 133 C9.04465338 137.08270174 18.38627711 135.33682409 24.47265625 134.76953125 C25.98827874 134.55479213 27.49627598 134.28642362 29 134 C29.9802248 139.68839118 30.11948801 145.17294333 30.0625 150.9375 C30.05798828 151.81212891 30.05347656 152.68675781 30.04882812 153.58789062 C30.03714834 155.72529047 30.01921689 157.86265463 30 160 C22.87241654 163.14452212 15.91515766 163.20856672 8.25 163.25 C6.84234375 163.2809375 6.84234375 163.2809375 5.40625 163.3125 C-6.54258705 163.37851567 -15.96661243 159.84422556 -24.59765625 151.4453125 C-32.80137838 141.36000272 -33.14695282 126.61098888 -33.16113281 114.2253418 C-33.16609772 113.17560684 -33.17106262 112.12587189 -33.17617798 111.04432678 C-33.19070283 107.59595065 -33.19758189 104.14762036 -33.203125 100.69921875 C-33.2088801 98.29645283 -33.21463779 95.89368692 -33.22039795 93.49092102 C-33.23087729 88.46684557 -33.23674143 83.442786 -33.24023438 78.41870117 C-33.24574277 71.97112632 -33.26983347 65.52376012 -33.29820633 59.07625103 C-33.31678614 54.12042107 -33.3220356 49.16464215 -33.32357025 44.20878029 C-33.32660287 41.83045104 -33.33465176 39.45212282 -33.34775543 37.07382774 C-33.36473411 33.75828183 -33.36295678 30.4432568 -33.35644531 27.12768555 C-33.3656601 26.14115997 -33.37487488 25.1546344 -33.3843689 24.13821411 C-33.37879974 23.23692276 -33.37323059 22.33563141 -33.36749268 21.4070282 C-33.36895924 20.62375499 -33.3704258 19.84048178 -33.3719368 19.03347301 C-32.90072183 16.45722104 -32.01336975 15.62414534 -30 14 C-28.29069016 12.99729052 -26.54614711 12.05362318 -24.78125 11.15234375 C-23.76675781 10.62962891 -22.75226563 10.10691406 -21.70703125 9.56835938 C-20.64871094 9.03017578 -19.59039062 8.49199219 -18.5 7.9375 C-16.40550239 6.86473965 -14.31171958 5.79058225 -12.21875 4.71484375 C-11.28998047 4.24167725 -10.36121094 3.76851074 -9.40429688 3.28100586 C-3.24623594 0 -3.24623594 0 0 0 Z " fill="#D10014" transform="translate(351,25)"/>
<path d="M0 0 C5 0 5 0 7.1328125 1.828125 C7.79023438 2.62734375 8.44765625 3.4265625 9.125 4.25 C10.11886719 5.43335938 10.11886719 5.43335938 11.1328125 6.640625 C12.79111283 8.73605052 14.412563 10.85055115 16 13 C19.58189678 11.80603441 20.33296142 10.60092839 22.5625 7.625 C23.16191406 6.83351562 23.76132812 6.04203125 24.37890625 5.2265625 C25.62641046 3.51312298 26.82433106 1.76350341 28 0 C29.98 0 31.96 0 34 0 C34 10.89 34 21.78 34 33 C32.02 33 30.04 33 28 33 C27.505 23.1 27.505 23.1 27 13 C24.03 16.63 21.06 20.26 18 24 C14.12282516 22.06141258 13.20427762 21.29726955 10.875 17.9375 C8.88925353 14.95372478 8.88925353 14.95372478 6 13 C6 19.6 6 26.2 6 33 C4.02 33 2.04 33 0 33 C0 22.11 0 11.22 0 0 Z " fill="#010101" transform="translate(295,225)"/>
<path d="M0 0 C0.99 0 1.98 0 3 0 C3 2.97 3 5.94 3 9 C6.63 9 10.26 9 14 9 C19 18.625 19 18.625 19 22 C19.66 22 20.32 22 21 22 C21.19335938 21.31292969 21.38671875 20.62585938 21.5859375 19.91796875 C21.84632813 19.01691406 22.10671875 18.11585938 22.375 17.1875 C22.63023437 16.29417969 22.88546875 15.40085938 23.1484375 14.48046875 C24 12 24 12 26 9 C29.125 8.8125 29.125 8.8125 32 9 C29.96531495 15.40752379 27.61270589 21.61960125 25 27.8125 C24.65710938 28.64458984 24.31421875 29.47667969 23.9609375 30.33398438 C23.62320312 31.13771484 23.28546875 31.94144531 22.9375 32.76953125 C22.63714844 33.48729736 22.33679688 34.20506348 22.02734375 34.94458008 C20.88170554 37.23667326 19.71538721 39.0913187 18 41 C14.375 41.8125 14.375 41.8125 11 42 C10 41 10 41 9.9375 38.4375 C9.958125 37.633125 9.97875 36.82875 10 36 C12.97 35.505 12.97 35.505 16 35 C15.53949264 28.24589202 13.5025177 21.80797239 10 16 C7.46896005 14.37028277 6.06443161 14.24034758 3 14 C3.33 17.96 3.66 21.92 4 26 C5.32 26.33 6.64 26.66 8 27 C8.042721 28.66611905 8.04063832 30.33382885 8 32 C7.505 32.495 7.505 32.495 7 33 C0.65981923 32.64776773 0.65981923 32.64776773 -1.7109375 30.3203125 C-4.28412228 25.6885799 -3.23405468 20.14920295 -3 15 C-2.94585937 13.78828125 -2.89171875 12.5765625 -2.8359375 11.328125 C-2.29388298 2.29388298 -2.29388298 2.29388298 0 0 Z " fill="#010101" transform="translate(419,226)"/>
<path d="M0 0 C2.39614126 -0.05425226 4.79103853 -0.09379027 7.1875 -0.125 C8.19780273 -0.15013672 8.19780273 -0.15013672 9.22851562 -0.17578125 C14.25930207 -0.22486209 18.11228929 0.17738276 21.8125 3.75 C23.36256483 6.68696494 23.27370634 8.71552396 23 12 C22.773125 12.680625 22.54625 13.36125 22.3125 14.0625 C21.74884957 16.17912022 21.74884957 16.17912022 23.5 18.3125 C25 21 25 21 25.0625 24.5 C23.97123582 28.09475259 22.84627311 29.67639062 19.91870117 31.98779297 C16.18875492 33.95551878 12.23562701 33.51369786 8.125 33.3125 C7.24585938 33.28994141 6.36671875 33.26738281 5.4609375 33.24414062 C3.30654993 33.18559748 1.1530469 33.09592783 -1 33 C-1.02469081 28.6217488 -1.04285557 24.24353433 -1.05493164 19.86523438 C-1.05996514 18.37531834 -1.06679242 16.88540726 -1.07543945 15.39550781 C-1.08754805 13.25584696 -1.09323807 11.11625132 -1.09765625 8.9765625 C-1.10289307 7.68830566 -1.10812988 6.40004883 -1.11352539 5.07275391 C-1 2 -1 2 0 0 Z M6 6 C5.61866701 7.9914056 5.28674418 9.99279077 5 12 C6.58894072 13.58894072 8.24801424 13.16998411 10.4375 13.1875 C11.24058594 13.20167969 12.04367187 13.21585938 12.87109375 13.23046875 C15.21630633 13.20162356 15.21630633 13.20162356 17 11 C16.59471099 8.21762345 16.59471099 8.21762345 15 6 C13.48071962 5.92820036 11.95832518 5.91607993 10.4375 5.9375 C9.19806641 5.95103516 9.19806641 5.95103516 7.93359375 5.96484375 C6.97646484 5.98224609 6.97646484 5.98224609 6 6 Z M6 18 C5.80587819 19.47831221 5.61987869 20.95769316 5.4375 22.4375 C5.33308594 23.26121094 5.22867187 24.08492187 5.12109375 24.93359375 C5.08113281 25.61550781 5.04117187 26.29742187 5 27 C6.57922406 28.57922406 8.19443874 28.207659 10.375 28.25 C11.16648437 28.27578125 11.95796875 28.3015625 12.7734375 28.328125 C15.07166811 28.17120156 15.07166811 28.17120156 16.796875 26.64453125 C18.26901735 24.9941059 18.26901735 24.9941059 17.875 22.4375 C17.15610832 19.6738389 17.15610832 19.6738389 14 18 C11.94290404 17.75944532 11.94290404 17.75944532 9.8125 17.875 C8.554375 17.91625 7.29625 17.9575 6 18 Z " fill="#010101" transform="translate(462,225)"/>
<path d="M0 0 C1.98 0 3.96 0 6 0 C6 3.63 6 7.26 6 11 C6.845625 10.608125 7.69125 10.21625 8.5625 9.8125 C13.11296678 8.73693513 14.99177021 9.69897919 19 12 C21.78440319 14.85767696 23.37738192 17.06881837 24 21 C23.30980774 25.90036502 21.81136484 29.24272615 18.1875 32.625 C14 34 14 34 0 33 C0 22.11 0 11.22 0 0 Z M7.25 16.625 C5.64907619 19.66675524 5.56668793 21.6057221 6 25 C7.06345052 26.98029682 7.06345052 26.98029682 9 28 C11.45672892 28.66685938 11.45672892 28.66685938 14 28 C16.50397498 25.91170257 16.50397498 25.91170257 18 23 C18.16977494 20.34872531 18.16977494 20.34872531 17 18 C15.26961928 16.09798258 15.26961928 16.09798258 13 15 C9.09050872 14.54636593 9.09050872 14.54636593 7.25 16.625 Z " fill="#010101" transform="translate(359,225)"/>
<path d="M0 0 C2.475 0.495 2.475 0.495 5 1 C5.79688494 11.81311563 6.12980563 22.18862917 5 33 C3.91847656 32.98582031 2.83695313 32.97164063 1.72265625 32.95703125 C-1.99542198 32.88940614 -1.99542198 32.88940614 -5.5625 33.6875 C-9.76295229 34.0693593 -11.53844276 33.36015267 -15 31 C-18.1805499 27.39537678 -18.56954504 23.87680436 -18.4296875 19.22265625 C-17.69387346 15.41649091 -15.77545759 13.64329294 -13 11 C-9.85658007 9.42829004 -6.44228549 9.76824217 -3 10 C-2.01 10.33 -1.02 10.66 0 11 C0 7.37 0 3.74 0 0 Z M-10.375 16.5 C-12.34658561 19.01020343 -12.34658561 19.01020343 -11.875 22.625 C-11.29259286 26.04542055 -11.29259286 26.04542055 -9 28 C-6.14171413 28.36644691 -4.62746004 28.44818574 -2.25 26.75 C-0.77986071 24.69180499 -0.14938971 23.53962504 0 21 C-1.35104015 17.77251519 -2.19870687 16.34928162 -5.4375 14.9375 C-8.10683014 14.78328808 -8.10683014 14.78328808 -10.375 16.5 Z " fill="#010101" transform="translate(603,225)"/>
<path d="M0 0 C5.67087852 5.67087852 4.22353905 17.24771713 4.25301075 24.80770683 C4.25222101 27.56196429 4.24173268 30.31607947 4.23046875 33.0703125 C4.22927486 35.00275644 4.22882423 36.93520097 4.2290802 38.86764526 C4.22752454 42.89357192 4.2192995 46.91940848 4.20581055 50.9453125 C4.18870736 56.11610862 4.18499994 61.28680714 4.18575573 66.45762825 C4.18548469 70.43629901 4.18001599 74.41494827 4.17275429 78.39361191 C4.16956592 80.30188713 4.16759982 82.21016479 4.16686058 84.11844254 C4.16470526 86.77057366 4.15598209 89.42259854 4.14526367 92.07470703 C4.14571686 92.86734451 4.14617004 93.65998199 4.14663696 94.47663879 C4.11448579 99.88551421 4.11448579 99.88551421 3 101 C-7.23 101 -17.46 101 -28 101 C-28 75.59 -28 50.18 -28 24 C-27.34 24.33 -26.68 24.66 -26 25 C-26 49.42 -26 73.84 -26 99 C-16.76 99 -7.52 99 2 99 C1.89210745 87.15228749 1.78007619 75.30463429 1.66066074 63.4570322 C1.60538501 57.95632032 1.55195771 52.45560318 1.50268555 46.95483398 C1.45511042 41.65098717 1.40277037 36.34720724 1.34705925 31.04343987 C1.32660454 29.01516309 1.30789674 26.98686795 1.29092598 24.95855904 C1.26695068 22.12798516 1.23688713 19.29753895 1.20532227 16.46704102 C1.19668907 15.19605812 1.19668907 15.19605812 1.18788147 13.8993988 C1.49942903 10.14330256 1.49942903 10.14330256 0 7 C-0.04092937 4.66702567 -0.04241723 2.33294775 0 0 Z " fill="#A90D1C" transform="translate(701,85)"/>
<path d="M0 0 C3.05335058 1.28103914 3.81595009 2.25593729 6 5 C6.49340566 8.17265145 6.29016999 10.7597684 6 14 C0.72 14 -4.56 14 -10 14 C-9.01 15.485 -9.01 15.485 -8 17 C-3.79582458 17.4671306 -0.80211723 16.78923164 3 15 C3.99 16.32 4.98 17.64 6 19 C2.54985051 22.34233232 -0.22699823 23.79977302 -4.94140625 24.15625 C-8.6413513 23.87541926 -11.29086231 22.5018422 -14 20 C-16.1484596 16.37447443 -17.04358314 14.08957847 -16.875 9.875 C-15.73337856 6.12395814 -14.62715725 2.98878426 -11.16796875 0.88671875 C-7.44240483 -0.63707046 -3.946093 -0.64064377 0 0 Z M-10 7 C-10 7.66 -10 8.32 -10 9 C-6.7 9 -3.4 9 0 9 C-0.66 7.68 -1.32 6.36 -2 5 C-5.71599191 4.79913557 -6.77208445 4.8480563 -10 7 Z " fill="#010101" transform="translate(505,235)"/>
<path d="M0 0 C2.3125 -0.3125 2.3125 -0.3125 5 0 C7.78089435 3.52959668 9.29681085 7.86368349 11 12 C13.28459758 9.71540242 13.97129748 7.87462656 15.125 4.875 C15.47820313 3.96492187 15.83140625 3.05484375 16.1953125 2.1171875 C16.46085938 1.41851562 16.72640625 0.71984375 17 0 C18.98 0 20.96 0 23 0 C23 1.65 23 3.3 23 5 C22.34 5 21.68 5 21 5 C20.85304688 5.55945313 20.70609375 6.11890625 20.5546875 6.6953125 C14.67603635 27.7098011 14.67603635 27.7098011 9 32 C3.63013699 33.31506849 3.63013699 33.31506849 1 32 C1 30.35 1 28.7 1 27 C2.65 26.67 4.3 26.34 6 26 C7.65137797 20.24273691 6.07697742 16.97972064 3.5625 11.875 C0 4.47857143 0 4.47857143 0 0 Z " fill="#010101" transform="translate(512,235)"/>
<path d="M0 0 C2.17178322 2.17178322 2.93998134 3.69742537 3.6875 6.6875 C3.43301572 11.43787323 2.6962519 14.95249764 -0.3125 18.6875 C-3.77178986 21.04610672 -5.67089628 21.71001241 -9.875 21.5625 C-13.92038285 20.53276618 -17.18124853 19.55565824 -19.421875 15.85546875 C-20.94789921 12.14080456 -20.97424559 8.62386296 -20.3125 4.6875 C-18.52806959 1.06502969 -16.01622391 -0.9453397 -12.4375 -2.8125 C-7.67213732 -3.57495803 -4.14723561 -2.35383643 0 0 Z M-13.0625 3.875 C-14.71528716 6.27154138 -15.2428003 7.76011258 -15.3125 10.6875 C-13.81647498 13.59920257 -13.81647498 13.59920257 -11.3125 15.6875 C-8.8125 16.4375 -8.8125 16.4375 -6.3125 15.6875 C-3.8125 14.1875 -3.8125 14.1875 -2.3125 11.6875 C-2.3781452 8.47088515 -2.77415836 6.49501247 -4.5625 3.8125 C-7.54112427 1.89767011 -10.12707115 1.88310185 -13.0625 3.875 Z " fill="#010101" transform="translate(555.3125,237.3125)"/>
<path d="M0 0 C3.13194005 2.13541367 4.88956088 3.83434133 7 7 C7.67581494 10.73476676 7.80786958 14.41764389 6.0546875 17.8515625 C3.51547797 21.09344636 1.01759186 23.13908746 -3 24 C-6.85477083 23.86232961 -9.40733708 23.31608689 -12.8125 21.5 C-15.90788957 17.96241192 -16.79510788 14.66523594 -17 10 C-16.13412635 6.22726482 -15.34538884 4.0260438 -12.22265625 1.64453125 C-7.9436558 -0.76189319 -4.78937763 -1.70288982 0 0 Z M-9.25 6.6875 C-11.16162348 8.86488083 -11.16162348 8.86488083 -11.5 11.5 C-10.83247946 14.8376027 -9.73251347 16.00600369 -7 18 C-4.12476676 18.49089348 -2.70554428 18.41359492 -0.1875 16.9375 C1.69021039 13.87386726 1.43729494 11.49835955 1 8 C-0.63450124 5.94054984 -0.63450124 5.94054984 -3 5 C-6.93541667 4.6 -6.93541667 4.6 -9.25 6.6875 Z " fill="#010101" transform="translate(349,235)"/>
<path d="M0 0 C3.45975321 3.11377789 3.71284473 6.47730447 4 11 C3.78660036 14.68238445 3.43054249 18.33707697 3 22 C1.35 22 -0.3 22 -2 22 C-2.04898438 21.02417969 -2.09796875 20.04835938 -2.1484375 19.04296875 C-2.26058594 17.13451172 -2.26058594 17.13451172 -2.375 15.1875 C-2.44460938 13.92292969 -2.51421875 12.65835938 -2.5859375 11.35546875 C-2.76102939 7.87244766 -2.76102939 7.87244766 -5 5 C-7.47266765 5.34444881 -7.47266765 5.34444881 -10 6 C-11.4807848 8.9615696 -11.35314037 11.83506295 -11.5625 15.125 C-11.64628906 16.40632813 -11.73007812 17.68765625 -11.81640625 19.0078125 C-11.90728516 20.48894531 -11.90728516 20.48894531 -12 22 C-13.98 22 -15.96 22 -18 22 C-18 14.41 -18 6.82 -18 -1 C-15.36 -1 -12.72 -1 -10 -1 C-5.9761071 -2.34129763 -3.92371185 -1.47139194 0 0 Z " fill="#010101" transform="translate(579,236)"/>
<path d="M0 0 C0.66 0 1.32 0 2 0 C2.05425226 2.39614126 2.09379027 4.79103853 2.125 7.1875 C2.14175781 7.86103516 2.15851563 8.53457031 2.17578125 9.22851562 C2.21834568 13.59136972 1.68397455 15.79006362 0 20 C-47.025 20.495 -47.025 20.495 -95 21 C-94.67 22.32 -94.34 23.64 -94 25 C-94.99 24.67 -95.98 24.34 -97 24 C-97 22.02 -97 20.04 -97 18 C-64.99 18 -32.98 18 0 18 C0 12.06 0 6.12 0 0 Z " fill="#AA0725" transform="translate(513,115)"/>
<path d="M0 0 C3.25 -0.3125 3.25 -0.3125 7 0 C9.4375 2.375 9.4375 2.375 11 5 C11 5.66 11 6.32 11 7 C11.99 7.33 12.98 7.66 14 8 C15.11663279 12.5048283 15.17195155 16.94135122 15.20532227 21.55395508 C15.21522186 22.40324585 15.22512146 23.25253662 15.23532104 24.12756348 C15.26681909 26.92485805 15.2916471 29.72216959 15.31640625 32.51953125 C15.33698588 34.46295097 15.35798262 36.40636632 15.37937927 38.34977722 C15.4344957 43.45755463 15.48395088 48.56537174 15.53222656 53.67321777 C15.58251783 58.88830079 15.63816405 64.10332636 15.69335938 69.31835938 C15.80081338 79.54552561 15.90179153 89.7727408 16 100 C26.23 100.33 36.46 100.66 47 101 C47 76.91 47 52.82 47 28 C47.33 28 47.66 28 48 28 C48 52.42 48 76.84 48 102 C37.11 102 26.22 102 15 102 C13.2573257 100.2573257 13.87000212 97.9900188 13.85655212 95.66702271 C13.8573452 94.52014481 13.8573452 94.52014481 13.8581543 93.35009766 C13.85467987 92.54832092 13.85120544 91.74654419 13.84762573 90.92047119 C13.84025257 89.17166467 13.83491554 87.4228487 13.83133507 85.6740303 C13.82417848 82.89844423 13.80851386 80.12303588 13.78999329 77.34750366 C13.73751568 69.45288676 13.68963361 61.5583614 13.67407227 53.66357422 C13.66393648 48.83817852 13.63446038 44.01322142 13.59275246 39.18799973 C13.58050556 37.35500802 13.57530957 35.52195413 13.57755089 33.68892288 C13.97271785 17.34493525 13.97271785 17.34493525 6.5 3.4375 C4.36006833 2.20703929 2.25605234 1.00268993 0 0 Z " fill="#A4151B" transform="translate(584,84)"/>
<path d="M0 0 C1.98 0 3.96 0 6 0 C6 10.89 6 21.78 6 33 C4.02 33 2.04 33 0 33 C0 22.11 0 11.22 0 0 Z " fill="#000000" transform="translate(396,225)"/>
<path d="M0 0 C1.98 0 3.96 0 6 0 C7.15937374 4.60068944 7.14882637 9.04032028 7.125 13.75 C7.12886719 14.52988281 7.13273437 15.30976563 7.13671875 16.11328125 C7.12670133 21.87329867 7.12670133 21.87329867 6 23 C4.02 23 2.04 23 0 23 C0 15.41 0 7.82 0 0 Z " fill="#000000" transform="translate(385,235)"/>
<path d="M0 0 C12.94704342 0.24386554 28.92503646 3.06732258 39 12 C39.73828125 13.87963867 39.73828125 13.87963867 40 16 C39.19555664 17.73925781 39.19555664 17.73925781 37.91015625 19.453125 C37.45576172 20.071875 37.00136719 20.690625 36.53320312 21.328125 C36.04787109 21.96234375 35.56253906 22.5965625 35.0625 23.25 C34.58103516 23.8996875 34.09957031 24.549375 33.60351562 25.21875 C32.41364358 26.82095394 31.20826972 28.41162434 30 30 C29.01 29.01 28.02 28.02 27 27 C27.639375 26.21625 28.27875 25.4325 28.9375 24.625 C30.98142313 22.20460719 30.98142313 22.20460719 32 20 C32.99 20 33.98 20 35 20 C34.87625 18.72125 34.7525 17.4425 34.625 16.125 C34.52058594 15.04605469 34.52058594 15.04605469 34.4140625 13.9453125 C34.13625251 11.77331755 34.13625251 11.77331755 32 10 C29.42938689 9.35232207 29.42938689 9.35232207 27 9 C27 8.34 27 7.68 27 7 C25.35 7 23.7 7 22 7 C22 6.67 22 6.34 22 6 C16.39 5.67 10.78 5.34 5 5 C5 4.01 5 3.02 5 2 C3.35 1.67 1.7 1.34 0 1 C0 0.67 0 0.34 0 0 Z " fill="#BA0719" transform="translate(261,56)"/>
<path d="M0 0 C0 11.55 0 23.1 0 35 C15.18 35 30.36 35 46 35 C45.04065919 38.83736322 44.76390737 39.59660228 42 42 C42.33 40.02 42.66 38.04 43 36 C42.45098526 36.00222061 41.90197052 36.00444122 41.33631897 36.00672913 C35.64292041 36.02878358 29.9495339 36.04390726 24.25610352 36.05493164 C22.12881986 36.05997298 20.00153969 36.06680591 17.87426758 36.07543945 C14.82372174 36.08751379 11.77322155 36.09323014 8.72265625 36.09765625 C7.28672874 36.10539818 7.28672874 36.10539818 5.8217926 36.11329651 C4.94095505 36.11337204 4.06011749 36.11344757 3.15258789 36.11352539 C1.9834359 36.11685631 1.9834359 36.11685631 0.79066467 36.12025452 C-1 36 -1 36 -2 35 C-2.08843793 32.55169574 -2.11528752 30.13179401 -2.09765625 27.68359375 C-2.0962413 26.95253922 -2.09482635 26.22148468 -2.09336853 25.46827698 C-2.08775408 23.12464368 -2.07519922 20.78110461 -2.0625 18.4375 C-2.05748686 16.85221492 -2.05292363 15.26692834 -2.04882812 13.68164062 C-2.03777997 9.7877239 -2.02050572 5.89387795 -2 2 C-2.598125 2.350625 -3.19625 2.70125 -3.8125 3.0625 C-6 4 -6 4 -9 3 C-5.55930376 0.70620251 -4.27709699 0 0 0 Z " fill="#9B081F" transform="translate(351,25)"/>
<path d="M0 0 C1.65 0 3.3 0 5 0 C5 7.59 5 15.18 5 23 C3.35 23 1.7 23 0 23 C0 15.41 0 7.82 0 0 Z " fill="#010101" transform="translate(407,235)"/>
<path d="M0 0 C0.66 0 1.32 0 2 0 C2 1.32 2 2.64 2 4 C2.66 4 3.32 4 4 4 C4 5.65 4 7.3 4 9 C15.22 8.67 26.44 8.34 38 8 C38 5.69 38 3.38 38 1 C40.6855594 3.6855594 41.06049974 6.37621328 42 10 C41 11 41 11 37.48999023 11.11352539 C35.92951578 11.11336626 34.36903607 11.10767142 32.80859375 11.09765625 C31.98875504 11.0962413 31.16891632 11.09482635 30.32423401 11.09336853 C27.69528618 11.08775289 25.06642227 11.07519779 22.4375 11.0625 C20.65950643 11.05748701 18.88151154 11.05292376 17.10351562 11.04882812 C12.73564455 11.03777839 8.36783652 11.02050331 4 11 C3.32880451 9.5437455 2.66318193 8.08492133 2 6.625 C1.62875 5.81289062 1.2575 5.00078125 0.875 4.1640625 C0 2 0 2 0 0 Z " fill="#AF0219" transform="translate(181,175)"/>
<path d="M0 0 C0.9802248 5.68839118 1.11948801 11.17294333 1.0625 16.9375 C1.05798828 17.81212891 1.05347656 18.68675781 1.04882812 19.58789062 C1.03714834 21.72529047 1.01921689 23.86265463 1 26 C-2.55642961 27.51820693 -5.11346173 28.2220879 -9 28 C-8.67 27.34 -8.34 26.68 -8 26 C-6.35 26 -4.7 26 -3 26 C-3 25.01 -3 24.02 -3 23 C-2.34 23 -1.68 23 -1 23 C-1 16.4 -1 9.8 -1 3 C-2.32 3.33 -3.64 3.66 -5 4 C-7.75970408 4.06926968 -10.49196042 4.0941736 -13.25 4.0625 C-13.99507813 4.05798828 -14.74015625 4.05347656 -15.5078125 4.04882812 C-17.3385764 4.03709246 -19.16929873 4.0191585 -21 4 C-21 3.34 -21 2.68 -21 2 C-20.03578125 1.93941406 -19.0715625 1.87882813 -18.078125 1.81640625 C-16.81484375 1.73261719 -15.5515625 1.64882812 -14.25 1.5625 C-12.99703125 1.48128906 -11.7440625 1.40007812 -10.453125 1.31640625 C-6.86198217 0.98735357 -3.59326918 0 0 0 Z " fill="#A90C1E" transform="translate(380,159)"/>
<path d="M0 0 C3.45854519 3.45854519 4 7.21904213 4 12 C2.99928467 11.83773926 1.99856934 11.67547852 0.9675293 11.50830078 C-2.90015756 11.01279133 -6.58356483 10.87064988 -10.48046875 10.8671875 C-11.17457352 10.86623077 -11.86867828 10.86527405 -12.58381653 10.86428833 C-14.04521781 10.86361196 -15.50662218 10.8654281 -16.96801758 10.86962891 C-19.1642969 10.87494385 -21.3603679 10.86968653 -23.55664062 10.86328125 C-31.74628895 10.85981268 -39.8482783 11.14089405 -48 12 C-42.67032425 6.67032425 -31.26213476 7.75968024 -24.20492554 7.72424316 C-22.84486065 7.72579326 -21.48479542 7.7308154 -20.12475586 7.73925781 C-18.04056571 7.75011425 -15.95721334 7.7392248 -13.87304688 7.7265625 C-12.53124812 7.72788213 -11.18944988 7.73044046 -9.84765625 7.734375 C-8.65148682 7.73663086 -7.45531738 7.73888672 -6.22290039 7.74121094 C-3.06646651 7.99466294 -0.84331255 8.65054048 2 10 C1.67 9.0925 1.34 8.185 1 7.25 C0 4 0 4 0 0 Z " fill="#A80B1B" transform="translate(161,161)"/>
<path d="M0 0 C3.25434131 0.45903341 4.95225932 1.58745211 7.3125 3.8125 C10.65378796 6.81387338 14.03798748 8.89770764 18 11 C14.33572029 12.35714063 12.49363912 11.52286834 9 10 C8.01 10 7.02 10 6 10 C6.22816406 10.61488281 6.45632812 11.22976562 6.69140625 11.86328125 C6.97886719 12.67152344 7.26632813 13.47976562 7.5625 14.3125 C7.85253906 15.11300781 8.14257812 15.91351563 8.44140625 16.73828125 C9 19 9 19 8 22 C6.87081967 19.62690978 5.74657935 17.25168006 4.625 14.875 C4.14933594 13.87726563 4.14933594 13.87726563 3.6640625 12.859375 C1.83324746 8.96889305 0.27033107 5.11895224 -1 1 C-0.67 0.67 -0.34 0.34 0 0 Z " fill="#B80918" transform="translate(222,149)"/>
<path d="M0 0 C0.66 0 1.32 0 2 0 C3.32 3.3 4.64 6.6 6 10 C10.64475959 10.04944066 15.28936596 10.08573863 19.93432617 10.10986328 C21.51443144 10.11992041 23.0945181 10.13356785 24.67456055 10.15087891 C26.9458475 10.17514022 29.21688836 10.18648582 31.48828125 10.1953125 C32.54780754 10.21079636 32.54780754 10.21079636 33.6287384 10.22659302 C37.32197792 10.22743775 38.83919216 10.10720523 42 8 C44.33199388 7.92094936 46.66832622 7.91201231 49 8 C42.62495316 14.37504684 29.92607271 13.29105171 21.5625 13.3125 C19.99894775 13.32047607 19.99894775 13.32047607 18.40380859 13.32861328 C8.29822776 13.23563215 8.29822776 13.23563215 4 11 C2.5390625 8.90625 2.5390625 8.90625 1.625 6.5 C1.30789062 5.7059375 0.99078125 4.911875 0.6640625 4.09375 C0 2 0 2 0 0 Z " fill="#A01120" transform="translate(233,176)"/>
<path d="M0 0 C0.99 0.66 1.98 1.32 3 2 C3.29296875 4.1640625 3.29296875 4.1640625 3.1875 6.625 C3.16042969 7.44226563 3.13335938 8.25953125 3.10546875 9.1015625 C3.07066406 9.72804688 3.03585937 10.35453125 3 11 C2.01 11.495 2.01 11.495 1 12 C0.01 11.67 -0.98 11.34 -2 11 C-1.67 12.32 -1.34 13.64 -1 15 C-1.99 15.33 -2.98 15.66 -4 16 C-4.37125 15.0409375 -4.37125 15.0409375 -4.75 14.0625 C-5.81562433 11.81258459 -5.81562433 11.81258459 -8.125 11.25 C-8.74375 11.1675 -9.3625 11.085 -10 11 C-10.33 9.68 -10.66 8.36 -11 7 C-9.68 7.99 -8.36 8.98 -7 10 C-5.68 7.69 -4.36 5.38 -3 3 C-2.34 3 -1.68 3 -1 3 C-0.67 2.01 -0.34 1.02 0 0 Z " fill="#CC0313" transform="translate(635,65)"/>
<path d="M0 0 C0.61875 0.5775 1.2375 1.155 1.875 1.75 C10.56133173 8.00415885 21.68604577 9.88840546 31.89453125 12.44335938 C33.00957031 12.73146484 34.12460937 13.01957031 35.2734375 13.31640625 C36.27810059 13.56849854 37.28276367 13.82059082 38.31787109 14.08032227 C41.04163172 15.01427514 42.81810556 16.14671975 45 18 C42.03 18 39.06 18 36 18 C36 17.01 36 16.02 36 15 C33.69 15 31.38 15 29 15 C29 14.34 29 13.68 29 13 C27.865625 13.020625 26.73125 13.04125 25.5625 13.0625 C22 13 22 13 21 12 C19.65252916 11.76924918 18.29622435 11.58846937 16.9375 11.4375 C15.638125 11.293125 14.33875 11.14875 13 11 C13 10.34 13 9.68 13 9 C11.35 9 9.7 9 8 9 C8 8.34 8 7.68 8 7 C7.05125 6.690625 6.1025 6.38125 5.125 6.0625 C2 5 2 5 0 4 C0 2.68 0 1.36 0 0 Z " fill="#AA0B1A" transform="translate(240,98)"/>
<path d="M0 0 C0.66 0.33 1.32 0.66 2 1 C-0.73595568 3.86623928 -3.1813798 5.7271266 -7 7 C-7.33 7.66 -7.66 8.32 -8 9 C-8.33 8.67 -8.66 8.34 -9 8 C-10.32 10.97 -11.64 13.94 -13 17 C-13.99 17 -14.98 17 -16 17 C-16.28875 17.78375 -16.5775 18.5675 -16.875 19.375 C-18 22 -18 22 -20 24 C-20.66 24.99 -21.32 25.98 -22 27 C-21.82707855 19.04561339 -17.37736813 13.47479221 -11.96875 7.91015625 C-8.29860686 4.57173759 -4.68593344 1.7851175 0 0 Z " fill="#BB0716" transform="translate(233,61)"/>
<path d="M0 0 C6.79143646 6.79143646 6.37359606 19.17134383 6.375 28.125 C6.3764502 29.13264404 6.37790039 30.14028809 6.37939453 31.1784668 C6.30701925 35.9946758 6.21169 38.57662 4 43 C4 32.77 4 22.54 4 12 C2.68 12 1.36 12 0 12 C-1.00007341 8.8886605 -0.87515553 7.11166412 0 4 C0 2.68 0 1.36 0 0 Z " fill="#A70F1F" transform="translate(841,95)"/>
<path d="M0 0 C-2.01864397 0.65264429 -4.04003727 1.29678746 -6.0625 1.9375 C-7.18785156 2.29714844 -8.31320312 2.65679687 -9.47265625 3.02734375 C-20.67035766 6.11508201 -32.82893934 6.13573633 -44 3 C-43.34 2.34 -42.68 1.68 -42 1 C-40.68 1 -39.36 1 -38 1 C-38 1.66 -38 2.32 -38 3 C-36.90042969 2.84402344 -35.80085938 2.68804687 -34.66796875 2.52734375 C-28.63927512 1.77193158 -22.58213893 1.65604864 -16.51367188 1.48242188 C-11.04303871 1.27367921 -4.98055518 -1.84465007 0 0 Z " fill="#B00B1B" transform="translate(478,184)"/>
<path d="M0 0 C2.38929859 3.58394789 2.59426285 5.86914851 2 10 C0.12781249 17.19923652 -2.01055431 24.17678121 -7.5 29.4375 C-9.90795383 31.94578524 -11.33517962 34.95739723 -13 38 C-15.31 38 -17.62 38 -20 38 C-19.34 37.505 -18.68 37.01 -18 36.5 C-5.2296075 25.85800625 -1.54791996 16.25315955 0 0 Z " fill="#A30D1E" transform="translate(819,118)"/>
<path d="M0 0 C0.928125 0.33 1.85625 0.66 2.8125 1 C5.92029291 2.14967004 5.92029291 2.14967004 9 2 C9 2.66 9 3.32 9 4 C9.66 4.33 10.32 4.66 11 5 C11 5.99 11 6.98 11 8 C10.48695313 7.79503906 9.97390625 7.59007813 9.4453125 7.37890625 C0.81400657 4.34196527 -7.94609547 4.28601659 -17 4 C-17 3.34 -17 2.68 -17 2 C-11.39 2 -5.78 2 0 2 C0 1.34 0 0.68 0 0 Z " fill="#B5091C" transform="translate(789,81)"/>
<path d="M0 0 C8.91 0 17.82 0 27 0 C27 0.66 27 1.32 27 2 C18.75 2 10.5 2 2 2 C1.34 3.32 0.68 4.64 0 6 C-0.99 6.495 -0.99 6.495 -2 7 C-1.125 2.25 -1.125 2.25 0 0 Z " fill="#A40E1D" transform="translate(127,23)"/>
<path d="M0 0 C0.33 0 0.66 0 1 0 C1 1.65 1 3.3 1 5 C0.34 5 -0.32 5 -1 5 C-1.66 7.97 -2.32 10.94 -3 14 C-0.36 14 2.28 14 5 14 C5 12.68 5 11.36 5 10 C7.31 10.33 9.62 10.66 12 11 C6.50281844 15.44003126 2.15634268 17.42938056 -5 17 C-6.36420006 12.90739982 -4.7664515 10.52987341 -3.0625 6.8125 C-2.77181641 6.15830078 -2.48113281 5.50410156 -2.18164062 4.83007812 C-1.46304657 3.21618656 -0.7326412 1.60756345 0 0 Z " fill="#B50716" transform="translate(62,176)"/>
<path d="M0 0 C0.33 0 0.66 0 1 0 C1 2.97 1 5.94 1 9 C1.66 9.33 2.32 9.66 3 10 C2.70802734 10.84691406 2.70802734 10.84691406 2.41015625 11.7109375 C1.90904018 14.5076424 2.4439323 15.98431785 3.4375 18.625 C5 22.84304933 5 22.84304933 5 25 C5.99 25.33 6.98 25.66 8 26 C9.1875 29.0625 9.1875 29.0625 10 32 C6.05840338 30.68613446 5.26402482 28.98402696 3.2109375 25.5 C-0.85481602 17.10618629 -1.48789653 9.10664382 0 0 Z " fill="#A90B19" transform="translate(210,88)"/>
<path d="M0 0 C7.34693878 -0.48979592 7.34693878 -0.48979592 10.5 1.875 C12 4 12 4 12 6 C12.61875 6.0825 13.2375 6.165 13.875 6.25 C16 7 16 7 17.125 9 C17.41375 9.66 17.7025 10.32 18 11 C18.66 11.33 19.32 11.66 20 12 C23.14433453 17.24055755 23.14433453 17.24055755 22.58203125 20.19921875 C22.29392578 21.09060547 22.29392578 21.09060547 22 22 C21.72027344 21.43152344 21.44054687 20.86304687 21.15234375 20.27734375 C16.04914262 10.44834865 10.12209786 5.41950752 0 1 C0 0.67 0 0.34 0 0 Z " fill="#AC0B1D" transform="translate(461,85)"/>
<path d="M0 0 C15.51 0 31.02 0 47 0 C46.04065919 3.83736322 45.76390737 4.59660228 43 7 C43.33 5.02 43.66 3.04 44 1 C29.48 1 14.96 1 0 1 C0 0.67 0 0.34 0 0 Z " fill="#A70F1B" transform="translate(350,60)"/>
<path d="M0 0 C2.35830786 3.53746179 3.97584017 7.18296639 5.6875 11.0625 C6.02072266 11.79533203 6.35394531 12.52816406 6.69726562 13.28320312 C7.52730376 15.16243708 8.27064895 17.07944523 9 19 C8.67 19.66 8.34 20.32 8 21 C7.34 20.67 6.68 20.34 6 20 C5.87625 19.360625 5.7525 18.72125 5.625 18.0625 C5.41875 17.381875 5.2125 16.70125 5 16 C4.01 15.566875 4.01 15.566875 3 15.125 C1 14 1 14 0.25 11.375 C-0.03277072 7.55759532 -0.0659854 3.82715318 0 0 Z " fill="#B3091B" transform="translate(171,64)"/>
<path d="M0 0 C-1.125 1.5 -1.125 1.5 -3 3 C-4.99958364 3.04080783 -7.00045254 3.04254356 -9 3 C-9.66 3.66 -10.32 4.32 -11 5 C-11.99 5 -12.98 5 -14 5 C-14 5.66 -14 6.32 -14 7 C-14.53625 6.855625 -15.0725 6.71125 -15.625 6.5625 C-18.39915827 5.90546252 -21.18525388 5.44780052 -24 5 C-17.11051809 0.40701206 -8.13579404 -0.26244497 0 0 Z " fill="#BE0718" transform="translate(260,56)"/>
<path d="M0 0 C1.32 0.33 2.64 0.66 4 1 C4 1.66 4 2.32 4 3 C1.76795517 4.96372768 -0.46817171 6.80496976 -2.8125 8.625 C-3.77639648 9.3984375 -3.77639648 9.3984375 -4.75976562 10.1875 C-5.38173828 10.67476562 -6.00371094 11.16203125 -6.64453125 11.6640625 C-7.21534424 12.11217285 -7.78615723 12.5602832 -8.37426758 13.02197266 C-10 14 -10 14 -13 14 C-13 13.34 -13 12.68 -13 12 C-11.68 11.67 -10.36 11.34 -9 11 C-9.33 9.68 -9.66 8.36 -10 7 C-9.36191406 6.82984375 -8.72382813 6.6596875 -8.06640625 6.484375 C-6.82697266 6.12085938 -6.82697266 6.12085938 -5.5625 5.75 C-4.73878906 5.51796875 -3.91507812 5.2859375 -3.06640625 5.046875 C-0.80004532 4.19229321 -0.80004532 4.19229321 -0.21484375 1.890625 C-0.14394531 1.26671875 -0.07304687 0.6428125 0 0 Z " fill="#B90619" transform="translate(499,165)"/>
<path d="M0 0 C1 3 1 3 0.1796875 5.0859375 C-5.65871122 15.32935561 -5.65871122 15.32935561 -11 18 C-11 17.01 -11 16.02 -11 15 C-10.34 15 -9.68 15 -9 15 C-8.87625 14.4225 -8.7525 13.845 -8.625 13.25 C-7.99351176 10.97664233 -7.11141809 9.0746471 -6 7 C-6.66 7 -7.32 7 -8 7 C-8 6.34 -8 5.68 -8 5 C-6.0625 4.4375 -6.0625 4.4375 -4 4 C-3.67 4.33 -3.34 4.66 -3 5 C-2.01 3.35 -1.02 1.7 0 0 Z " fill="#B80917" transform="translate(304,160)"/>
<path d="M0 0 C1.485 0.86625 1.485 0.86625 3 1.75 C11.11475581 6.37524621 17.33383973 9.01960229 26.75 9.5625 C27.44738281 9.60568359 28.14476562 9.64886719 28.86328125 9.69335938 C30.57531922 9.79889596 32.28763561 9.8998991 34 10 C34 10.33 34 10.66 34 11 C30.95809137 11.05421223 27.91716001 11.09377548 24.875 11.125 C24.0190625 11.14175781 23.163125 11.15851563 22.28125 11.17578125 C17.43412707 11.21306681 13.55292095 10.89580643 9 9 C9 8.34 9 7.68 9 7 C6.36 6.67 3.72 6.34 1 6 C1.33 5.01 1.66 4.02 2 3 C1.34 2.67 0.68 2.34 0 2 C0 1.34 0 0.68 0 0 Z " fill="#AD091B" transform="translate(754,150)"/>
<path d="M0 0 C-1 3 -1 3 -3 4 C-5.59143905 4.31045526 -8.18371732 4.50973912 -10.78515625 4.71875 C-12.97070668 4.7665741 -12.97070668 4.7665741 -14 6 C-20.05044668 6.59251079 -24.73950997 6.32241475 -30 3 C-27 2 -27 2 -24.8125 2.4375 C-17.54234625 3.89153075 -11.58975037 2.58403301 -4.5390625 0.65625 C-2 0 -2 0 0 0 Z " fill="#A50D1B" transform="translate(469,157)"/>
<path d="M0 0 C4.67193985 3.1535594 7.45099895 6.90984445 10.375 11.6875 C10.73271484 12.27039795 11.09042969 12.8532959 11.45898438 13.45385742 C14 17.72169872 14 17.72169872 14 20 C13.34 20 12.68 20 12 20 C12 19.34 12 18.68 12 18 C11.01 18 10.02 18 9 18 C8.67386719 17.14535156 8.34773437 16.29070312 8.01171875 15.41015625 C7.35623047 13.75306641 7.35623047 13.75306641 6.6875 12.0625 C6.25824219 10.96035156 5.82898438 9.85820313 5.38671875 8.72265625 C4.24391139 5.69139735 4.24391139 5.69139735 1 5 C0.67 3.35 0.34 1.7 0 0 Z " fill="#B80A1A" transform="translate(827,75)"/>
<path d="M0 0 C1.32 0.33 2.64 0.66 4 1 C3.814375 1.804375 3.62875 2.60875 3.4375 3.4375 C2.90389972 7.78253084 3.3774296 11.68989724 4 16 C5.32 15.34 6.64 14.68 8 14 C8 17 8 17 7 20 C7.39397335 22.63804589 7.39397335 22.63804589 8 25 C4.59106907 22.32084021 3.60002968 18.72539375 2.3125 14.75 C2.08755859 14.10675781 1.86261719 13.46351563 1.63085938 12.80078125 C0.17885358 8.41387012 -0.22056945 4.60215182 0 0 Z " fill="#AC0D1C" transform="translate(388,130)"/>
<path d="M0 0 C0 3 0 3 -1 5 C-2.65532623 6.01866229 -4.32260138 7.01810813 -6 8 C-8.20857238 9.82786272 -8.20857238 9.82786272 -8.4375 12.4375 C-9.08070422 15.36765254 -9.62842355 16.22131766 -12 18 C-14.6875 19.1875 -14.6875 19.1875 -17 20 C-13.04447413 11.68419678 -6.99721049 5.8465581 0 0 Z " fill="#B00A1C" transform="translate(414,68)"/>
<path d="M0 0 C1.8871875 0.0309375 1.8871875 0.0309375 3.8125 0.0625 C3.8125 0.3925 3.8125 0.7225 3.8125 1.0625 C2.82507813 1.25585938 1.83765625 1.44921875 0.8203125 1.6484375 C-0.46101563 1.90882812 -1.74234375 2.16921875 -3.0625 2.4375 C-4.33867187 2.69273438 -5.61484375 2.94796875 -6.9296875 3.2109375 C-10.24674456 3.78487896 -10.24674456 3.78487896 -12.1875 6.0625 C-14.8125 6.1875 -14.8125 6.1875 -17.1875 6.0625 C-17.1875 6.7225 -17.1875 7.3825 -17.1875 8.0625 C-19.49118736 9.12902192 -21.82768187 10.12671005 -24.1875 11.0625 C-24.8475 10.7325 -25.5075 10.4025 -26.1875 10.0625 C-20.20548252 5.8802299 -14.0999674 3.34059911 -7.1875 1.0625 C-4.43671116 0.14557039 -2.82801087 -0.04636083 0 0 Z " fill="#AA091A" transform="translate(442.1875,56.9375)"/>
<path d="M0 0 C0.66 0.33 1.32 0.66 2 1 C1.34 2.32 0.68 3.64 0 5 C-0.66 5 -1.32 5 -2 5 C-2.2475 5.763125 -2.495 6.52625 -2.75 7.3125 C-4.16008412 10.34418085 -5.01626376 11.50813188 -8 13 C-11.25 12.6875 -11.25 12.6875 -14 12 C-11.98760821 10.48393802 -9.97004395 8.97829599 -7.9296875 7.5 C-7.25164062 7.005 -6.57359375 6.51 -5.875 6 C-4.85019531 5.2575 -4.85019531 5.2575 -3.8046875 4.5 C-1.75481534 2.94131337 -1.75481534 2.94131337 0 0 Z " fill="#B9091C" transform="translate(484,145)"/>
<path d="M0 0 C1.98 0 3.96 0 6 0 C11.37129841 12.48519362 11.37129841 12.48519362 13 19 C10.525 18.01 10.525 18.01 8 17 C8.04125 15.88625 8.0825 14.7725 8.125 13.625 C8.41121859 9.95633975 8.41121859 9.95633975 6 8 C5.34 8 4.68 8 4 8 C4.33 5.69 4.66 3.38 5 1 C3.35 1 1.7 1 0 1 C0 0.67 0 0.34 0 0 Z " fill="#A90C1B" transform="translate(148,141)"/>
<path d="M0 0 C-4.42784447 4.42784447 -12.4252704 4.95011038 -18.51904297 5.03515625 C-24.02871566 4.89621401 -29.51118877 4.48568372 -35 4 C-35 3.67 -35 3.34 -35 3 C-34.25838623 2.98018066 -33.51677246 2.96036133 -32.75268555 2.93994141 C-29.39726166 2.84477072 -26.04246714 2.73505906 -22.6875 2.625 C-21.52025391 2.5940625 -20.35300781 2.563125 -19.15039062 2.53125 C-17.47299805 2.47324219 -17.47299805 2.47324219 -15.76171875 2.4140625 C-14.73006592 2.3826416 -13.69841309 2.3512207 -12.63549805 2.31884766 C-7.90125483 1.74608975 -5.21012017 -0.19660831 0 0 Z " fill="#B2091B" transform="translate(282,184)"/>
<path d="M0 0 C3.25 -0.3125 3.25 -0.3125 7 0 C9.4375 2.375 9.4375 2.375 11 5 C11 5.66 11 6.32 11 7 C11.99 7.33 12.98 7.66 14 8 C15.32286246 12.96073422 15.08893197 17.91111512 15 23 C14.67 23 14.34 23 14 23 C13.82984375 22.13117188 13.6596875 21.26234375 13.484375 20.3671875 C11.80088615 11.42873294 11.80088615 11.42873294 7 4 C4.6892169 2.70516464 2.52223825 1.87308247 0 1 C0 0.67 0 0.34 0 0 Z " fill="#AD0A1E" transform="translate(584,84)"/>
<path d="M0 0 C3.45854519 3.45854519 4 7.21904213 4 12 C3.04996094 11.84660156 2.09992188 11.69320312 1.12109375 11.53515625 C-3.54961567 10.86791205 -8.22798139 10.65596436 -12.9375 10.4375 C-14.24944336 10.37272461 -14.24944336 10.37272461 -15.58789062 10.30664062 C-17.72511995 10.20153099 -19.86254238 10.10036015 -22 10 C-22 9.67 -22 9.34 -22 9 C-18.75001888 8.97090237 -15.50007143 8.95316839 -12.25 8.9375 C-10.86941406 8.92493164 -10.86941406 8.92493164 -9.4609375 8.91210938 C-8.57148438 8.90888672 -7.68203125 8.90566406 -6.765625 8.90234375 C-5.94868164 8.89710693 -5.13173828 8.89187012 -4.29003906 8.88647461 C-2.06031865 8.99700979 -0.13866245 9.37944433 2 10 C1.67 9.0925 1.34 8.185 1 7.25 C0 4 0 4 0 0 Z " fill="#90101B" transform="translate(161,161)"/>
<path d="M0 0 C0.33 0 0.66 0 1 0 C1.02698189 1.62490954 1.04638757 3.24994633 1.0625 4.875 C1.07410156 5.77992187 1.08570313 6.68484375 1.09765625 7.6171875 C1 10 1 10 0 12 C-0.22622081 13.70363822 -0.40888473 15.41328701 -0.5625 17.125 C-0.64628906 18.03507812 -0.73007812 18.94515625 -0.81640625 19.8828125 C-0.87699219 20.58148438 -0.93757812 21.28015625 -1 22 C-1.66 22 -2.32 22 -3 22 C-3.41136629 14.12309743 -2.436168 7.49701701 0 0 Z " fill="#AA0A19" transform="translate(718,99)"/>
<path d="M0 0 C1.32 0 2.64 0 4 0 C4 0.66 4 1.32 4 2 C5.65 2 7.3 2 9 2 C9 2.66 9 3.32 9 4 C9.66 4 10.32 4 11 4 C11 4.66 11 5.32 11 6 C12.98 6 14.96 6 17 6 C17 6.66 17 7.32 17 8 C18.98 8 20.96 8 23 8 C20.51904508 9.62885124 19.44653564 10.0894458 16.484375 9.49609375 C10.63465837 7.23141774 5.0036995 4.85671967 0 1 C0 0.67 0 0.34 0 0 Z " fill="#AE0C1C" transform="translate(220,121)"/>
<path d="M0 0 C0.33 1.32 0.66 2.64 1 4 C-4.85123766 9.36363452 -12.51670866 9.31180381 -20 9 C-20 8.67 -20 8.34 -20 8 C-18.58847656 7.76216797 -18.58847656 7.76216797 -17.1484375 7.51953125 C-7.51999663 5.78167344 -7.51999663 5.78167344 0 0 Z " fill="#AD0A1D" transform="translate(273,156)"/>
<path d="M0 0 C0.33 1.32 0.66 2.64 1 4 C0.01 4.66 -0.98 5.32 -2 6 C-3.00805555 8.17897492 -3.00805555 8.17897492 -3.6875 10.625 C-3.93886719 11.44226563 -4.19023438 12.25953125 -4.44921875 13.1015625 C-4.63097656 13.72804688 -4.81273437 14.35453125 -5 15 C-5.66 15 -6.32 15 -7 15 C-7 15.66 -7 16.32 -7 17 C-7.66 17 -8.32 17 -9 17 C-7.46933687 11.18348012 -4.32262613 4.32262613 0 0 Z " fill="#AF0B1E" transform="translate(728,82)"/>
<path d="M0 0 C0.66 0.33 1.32 0.66 2 1 C-0.73595568 3.86623928 -3.1813798 5.7271266 -7 7 C-7.33 7.66 -7.66 8.32 -8 9 C-8.66 9 -9.32 9 -10 9 C-11.56266521 10.099763 -11.56266521 10.099763 -13.125 11.5 C-14.07375 12.325 -15.0225 13.15 -16 14 C-13.41351318 7.99565559 -8.12500665 4.2592632 -2.625 1 C-1.75875 0.67 -0.8925 0.34 0 0 Z " fill="#B00B1D" transform="translate(233,61)"/>
<path d="M0 0 C10.11210138 -0.530149 10.11210138 -0.530149 15 3 C16.98451771 3.71143088 18.98202112 4.38991336 21 5 C17.87820592 6.00693162 16.01030331 5.97289724 12.890625 5.00390625 C11.75947266 4.66069336 11.75947266 4.66069336 10.60546875 4.31054688 C9.43951172 3.94026367 9.43951172 3.94026367 8.25 3.5625 C7.45722656 3.31951172 6.66445312 3.07652344 5.84765625 2.82617188 C3.89564654 2.22645805 1.94743117 1.61441879 0 1 C0 0.67 0 0.34 0 0 Z " fill="#A9091D" transform="translate(243,131)"/>
<path d="M0 0 C1.2065625 0.0309375 1.2065625 0.0309375 2.4375 0.0625 C2.81968767 1.71864657 3.15145102 3.38707024 3.4375 5.0625 C2.4375 6.0625 2.4375 6.0625 -0.125 6.125 C-1.3315625 6.0940625 -1.3315625 6.0940625 -2.5625 6.0625 C-2.94468767 4.40635343 -3.27645102 2.73792976 -3.5625 1.0625 C-2.5625 0.0625 -2.5625 0.0625 0 0 Z " fill="#010101" transform="translate(388.5625,225.9375)"/>
<path d="M0 0 C4.91186721 1.3263499 8.01973146 3.3339171 11.875 6.625 C12.84179688 7.44226563 13.80859375 8.25953125 14.8046875 9.1015625 C15.89136719 10.04128906 15.89136719 10.04128906 17 11 C13.39700049 11 12.4424005 10.12650964 9.5625 8.0625 C6.70631544 6.01822577 4.47769861 4.62582731 1 4 C0.67 2.68 0.34 1.36 0 0 Z " fill="#AE0C1B" transform="translate(810,63)"/>
<path d="M0 0 C1.2065625 0.0309375 1.2065625 0.0309375 2.4375 0.0625 C3.5625 3.8125 3.5625 3.8125 2.4375 6.0625 C0.7875 6.0625 -0.8625 6.0625 -2.5625 6.0625 C-2.94468767 4.40635343 -3.27645102 2.73792976 -3.5625 1.0625 C-2.5625 0.0625 -2.5625 0.0625 0 0 Z " fill="#020202" transform="translate(409.5625,225.9375)"/>
<path d="M0 0 C5.85685923 -0.38196908 11.71111731 0.28463494 17 3 C17.7890625 5.109375 17.7890625 5.109375 18 7 C14.71949124 5.95983868 11.59227882 4.82117492 8.4375 3.4375 C5.55057934 2.23024227 3.07373688 1.46571771 0 1 C0 0.67 0 0.34 0 0 Z " fill="#B3091E" transform="translate(263,81)"/>
<path d="M0 0 C1.65 0 3.3 0 5 0 C5 1.65 5 3.3 5 5 C4.34 4.34 3.68 3.68 3 3 C1.68 5.97 0.36 8.94 -1 12 C-1.33 12 -1.66 12 -2 12 C-2 10.02 -2 8.04 -2 6 C-2.66 5.67 -3.32 5.34 -4 5 C-2.68 4.67 -1.36 4.34 0 4 C0 2.68 0 1.36 0 0 Z " fill="#B20717" transform="translate(137,67)"/>
<path d="M0 0 C7.2547009 1.01474939 12.811421 3.08355629 19 7 C15.23375329 8.25541557 13.62811066 7.37061958 10 6 C10 5.34 10 4.68 10 4 C8.35 4 6.7 4 5 4 C5 3.67 5 3.34 5 3 C3.35 2.67 1.7 2.34 0 2 C0 1.34 0 0.68 0 0 Z " fill="#AA0B1B" transform="translate(278,59)"/>
<path d="M0 0 C0.598125 0.763125 1.19625 1.52625 1.8125 2.3125 C3.46959332 4.3483575 5.10297674 6.1978279 7 8 C6.67 8.66 6.34 9.32 6 10 C4.33333333 10 2.66666667 10 1 10 C1 9.34 1 8.68 1 8 C0.34 8 -0.32 8 -1 8 C-0.67 5.36 -0.34 2.72 0 0 Z " fill="#B40715" transform="translate(747,140)"/>
<path d="M0 0 C1.98 0 3.96 0 6 0 C3.18733412 2.14481827 0.31944934 4.16531633 -2.625 6.125 C-3.40101563 6.64320312 -4.17703125 7.16140625 -4.9765625 7.6953125 C-7 9 -7 9 -9 10 C-9.33 8.68 -9.66 7.36 -10 6 C-9.34 6 -8.68 6 -8 6 C-7.67 5.34 -7.34 4.68 -7 4 C-5.125 3.4375 -5.125 3.4375 -3 3 C-2.01 2.67 -1.02 2.34 0 2 C0 1.34 0 0.68 0 0 Z " fill="#AD0816" transform="translate(435,85)"/>
<path d="M0 0 C0.66 0.33 1.32 0.66 2 1 C0.02 1.99 0.02 1.99 -2 3 C-2 4.32 -2 5.64 -2 7 C-8.625 8 -8.625 8 -12 8 C-10.75312408 7.03760548 -9.50235031 6.08025991 -8.25 5.125 C-7.55390625 4.59132813 -6.8578125 4.05765625 -6.140625 3.5078125 C-4.13054265 2.09195158 -2.28373314 0.91157415 0 0 Z " fill="#B10919" transform="translate(752,62)"/>
<path d="M0 0 C-3.39883814 1.84556076 -6.87803706 3.02641213 -10.5625 4.1875 C-11.69816406 4.55230469 -12.83382812 4.91710937 -14.00390625 5.29296875 C-17 6 -17 6 -20 5 C-14.41964781 0.30684666 -7.12714029 -0.37511265 0 0 Z " fill="#AA0919" transform="translate(112,173)"/>
<path d="M0 0 C1.27609323 0.90933009 2.54565553 1.82782853 3.8125 2.75 C4.87404297 3.51570312 4.87404297 3.51570312 5.95703125 4.296875 C8.02977691 6.02482358 9.47375854 7.78526476 11 10 C8.6875 10.6875 8.6875 10.6875 6 11 C4.1875 9.8125 4.1875 9.8125 3 8 C3 6.68 3 5.36 3 4 C2.34 4 1.68 4 1 4 C0.67 2.68 0.34 1.36 0 0 Z " fill="#B6081C" transform="translate(488,147)"/>
<path d="M0 0 C0.33 0.66 0.66 1.32 1 2 C1.66 2 2.32 2 3 2 C3.33 3.98 3.66 5.96 4 8 C4.66 8 5.32 8 6 8 C7.32 10.64 8.64 13.28 10 16 C5.72388376 14.57462792 4.31023309 11.73434937 2 8 C0.54943105 4.96071267 0 3.37425745 0 0 Z " fill="#AE091A" transform="translate(321,163)"/>
<path d="M0 0 C1.65 0 3.3 0 5 0 C3.59928507 5.29158974 0.14512755 7.77478044 -4 11 C-3.67 9.35 -3.34 7.7 -3 6 C-1.68 5.67 -0.36 5.34 1 5 C0.67 3.35 0.34 1.7 0 0 Z " fill="#B80819" transform="translate(830,160)"/>
<path d="M0 0 C0.73734375 -0.01224609 1.4746875 -0.02449219 2.234375 -0.03710938 C4.15770058 -0.04237395 6.08054263 0.06546553 8 0.1875 C8.66 0.8475 9.32 1.5075 10 2.1875 C8.83984375 2.13529297 8.83984375 2.13529297 7.65625 2.08203125 C0.96287095 1.90806967 -3.91030021 2.37686933 -10 5.1875 C-10 3.8675 -10 2.5475 -10 1.1875 C-6.84044583 -0.39227708 -3.46536183 0.00302916 0 0 Z " fill="#B00A1E" transform="translate(652,82.8125)"/>
<path d="M0 0 C1.32 0 2.64 0 4 0 C4.04125 0.969375 4.0825 1.93875 4.125 2.9375 C4.81316152 8.10400494 7.96656307 11.9090346 11 16 C10.34 16.33 9.68 16.66 9 17 C7.68085608 14.92062051 6.36961787 12.83691981 5.0625 10.75 C4.68931641 10.16347656 4.31613281 9.57695312 3.93164062 8.97265625 C2.1034339 6.04093735 0.53724618 3.44519771 0 0 Z " fill="#9F0A1A" transform="translate(720,148)"/>
<path d="M0 0 C3.42931954 3.7559214 4.56429083 8.23466745 6 13 C5.34 13 4.68 13 4 13 C4 12.34 4 11.68 4 11 C2.68 10.67 1.36 10.34 0 10 C-1.125 2.25 -1.125 2.25 0 0 Z " fill="#B20919" transform="translate(203,139)"/>
<path d="M0 0 C1.32 0.33 2.64 0.66 4 1 C1.69 4.63 -0.62 8.26 -3 12 C-3.33 10.68 -3.66 9.36 -4 8 C-3.34 8 -2.68 8 -2 8 C-2.66 6.68 -3.32 5.36 -4 4 C-2.25 1.9375 -2.25 1.9375 0 0 Z " fill="#B80716" transform="translate(389,68)"/>
<path d="M0 0 C1.0625 1.8125 1.0625 1.8125 2 4 C1.67 4.99 1.34 5.98 1 7 C0.34 7 -0.32 7 -1 7 C-1.99 10.3 -2.98 13.6 -4 17 C-4.66 16.67 -5.32 16.34 -6 16 C-4.25192871 10.53262809 -2.34205919 5.24175152 0 0 Z " fill="#AF0B1C" transform="translate(112,58)"/>
<path d="M0 0 C0.66 0.33 1.32 0.66 2 1 C0.59103494 3.90883109 -0.84975764 6.57299378 -3 9 C-6.8125 9.5 -6.8125 9.5 -10 9 C-9.278125 8.443125 -8.55625 7.88625 -7.8125 7.3125 C-5.02542701 5.02090666 -2.51358472 2.58540143 0 0 Z " fill="#B20715" transform="translate(809,147)"/>
<path d="M0 0 C0.33 0 0.66 0 1 0 C1 1.65 1 3.3 1 5 C0.34 5 -0.32 5 -1 5 C-1.38897161 6.62171239 -1.76078298 8.24754925 -2.125 9.875 C-2.33382812 10.77992188 -2.54265625 11.68484375 -2.7578125 12.6171875 C-2.83773437 13.40351563 -2.91765625 14.18984375 -3 15 C-2.34 15.66 -1.68 16.32 -1 17 C-2.65 16.67 -4.3 16.34 -6 16 C-4.25192871 10.53262809 -2.34205919 5.24175152 0 0 Z " fill="#A20B1C" transform="translate(62,176)"/>
<path d="M0 0 C2.97 0.33 5.94 0.66 9 1 C9 1.66 9 2.32 9 3 C9.66 3 10.32 3 11 3 C11 5.31 11 7.62 11 10 C8 6.25 8 6.25 8 4 C7.05125 3.71125 6.1025 3.4225 5.125 3.125 C2 2 2 2 0 0 Z " fill="#B50A1A" transform="translate(264,137)"/>
<path d="M0 0 C1.86785156 0.01353516 1.86785156 0.01353516 3.7734375 0.02734375 C5.18496094 0.04474609 5.18496094 0.04474609 6.625 0.0625 C6.625 0.3925 6.625 0.7225 6.625 1.0625 C5.34302734 1.15337891 5.34302734 1.15337891 4.03515625 1.24609375 C2.37806641 1.37177734 2.37806641 1.37177734 0.6875 1.5 C-0.41464844 1.58121094 -1.51679687 1.66242187 -2.65234375 1.74609375 C-5.28609903 1.76668084 -5.28609903 1.76668084 -6.375 3.0625 C-7.89428038 3.13429964 -9.41667482 3.14642007 -10.9375 3.125 C-11.76378906 3.11597656 -12.59007812 3.10695312 -13.44140625 3.09765625 C-14.07949219 3.08605469 -14.71757813 3.07445312 -15.375 3.0625 C-11.39476243 -0.91773757 -5.32684196 -0.05025323 0 0 Z " fill="#A60A19" transform="translate(592.375,55.9375)"/>
<path d="M0 0 C0.84062397 3.09773244 1.08935201 5.78332751 1 9 C0.34 9 -0.32 9 -1 9 C-1 9.66 -1 10.32 -1 11 C-1.66 11 -2.32 11 -3 11 C-3.33 12.32 -3.66 13.64 -4 15 C-5.32830615 11.01508155 -4.23204404 9.59951452 -2.5625 5.8125 C-2.08941406 4.72582031 -1.61632812 3.63914063 -1.12890625 2.51953125 C-0.75636719 1.68808594 -0.38382812 0.85664062 0 0 Z " fill="#AE0C1C" transform="translate(118,44)"/>
<path d="M0 0 C2.91387197 0.2913872 3.82565583 0.79452294 5.75 3.0625 C6.1625 3.701875 6.575 4.34125 7 5 C6.01 5 5.02 5 4 5 C3.34 6.32 2.68 7.64 2 9 C1.01 6.36 0.02 3.72 -1 1 C-0.67 0.67 -0.34 0.34 0 0 Z " fill="#A60E23" transform="translate(222,149)"/>
<path d="M0 0 C0.66 0.33 1.32 0.66 2 1 C1.38511719 1.88751953 1.38511719 1.88751953 0.7578125 2.79296875 C-0.05042969 3.97826172 -0.05042969 3.97826172 -0.875 5.1875 C-1.40867187 5.96480469 -1.94234375 6.74210937 -2.4921875 7.54296875 C-3.98015439 9.9676609 -5.02428078 12.3333499 -6 15 C-6.33 15 -6.66 15 -7 15 C-7 13.02 -7 11.04 -7 9 C-6.34 9 -5.68 9 -5 9 C-5.33 7.68 -5.66 6.36 -6 5 C-5.01 5 -4.02 5 -3 5 C-2.690625 4.360625 -2.38125 3.72125 -2.0625 3.0625 C-1 1 -1 1 0 0 Z " fill="#AA0F1E" transform="translate(424,95)"/>
<path d="M0 0 C4.29238623 1.65091778 6.8793915 4.73754566 10 8 C9.67 8.66 9.34 9.32 9 10 C8.236875 9.525625 7.47375 9.05125 6.6875 8.5625 C4.03589452 6.89893903 4.03589452 6.89893903 1 6 C1.33 4.68 1.66 3.36 2 2 C1.34 2 0.68 2 0 2 C0 1.34 0 0.68 0 0 Z " fill="#B20B1A" transform="translate(490,71)"/>
<path d="M0 0 C2.24956302 2.24956302 3.00510965 4.06323263 4.1875 7 C4.55230469 7.886875 4.91710937 8.77375 5.29296875 9.6875 C6 12 6 12 5 14 C4.67 13.01 4.34 12.02 4 11 C2.68 10.34 1.36 9.68 0 9 C0 6.03 0 3.06 0 0 Z " fill="#B1081C" transform="translate(185,97)"/>
<path d="M0 0 C0.33 0.99 0.66 1.98 1 3 C2.65 2.34 4.3 1.68 6 1 C6.66 2.32 7.32 3.64 8 5 C3.28596212 4.52060632 -0.66579301 4.03165952 -5 2 C-5 1.67 -5 1.34 -5 1 C-3.35 0.67 -1.7 0.34 0 0 Z " fill="#AD0B1C" transform="translate(760,182)"/>
<path d="M0 0 C0.33 0 0.66 0 1 0 C1.0270043 1.45823212 1.04639787 2.91660675 1.0625 4.375 C1.07410156 5.18710938 1.08570313 5.99921875 1.09765625 6.8359375 C1 9 1 9 0 11 C0.66 11.33 1.32 11.66 2 12 C1.34 13.32 0.68 14.64 0 16 C-0.33 16 -0.66 16 -1 16 C-2.0006709 10.03654233 -2.0662997 5.71271093 0 0 Z " fill="#BD0519" transform="translate(390,101)"/>
<path d="M0 0 C1.04296875 1.87109375 1.04296875 1.87109375 2 4 C0.99247297 7.0225811 -0.67941125 8.87279364 -3 11 C-3.66 11.66 -4.32 12.32 -5 13 C-4.39254603 8.14036821 -2.27241033 4.2594482 0 0 Z " fill="#AE0916" transform="translate(396,88)"/>
<path d="M0 0 C1.11375 0.598125 2.2275 1.19625 3.375 1.8125 C4.00148438 2.14894531 4.62796875 2.48539062 5.2734375 2.83203125 C7 4 7 4 9 7 C2.47692308 6.50769231 2.47692308 6.50769231 0.0625 3.9375 C-0.4634375 2.9784375 -0.4634375 2.9784375 -1 2 C-0.67 1.34 -0.34 0.68 0 0 Z " fill="#B90A1B" transform="translate(481,64)"/>
<path d="M0 0 C2.96052484 3.36423277 3.92289822 6.69159287 5 11 C4.34 11 3.68 11 3 11 C3 10.01 3 9.02 3 8 C1.68 8.33 0.36 8.66 -1 9 C-1 8.01 -1 7.02 -1 6 C-0.34 6 0.32 6 1 6 C0.67 4.02 0.34 2.04 0 0 Z " fill="#B40719" transform="translate(194,118)"/>
<path d="M0 0 C1.65 0 3.3 0 5 0 C1.59780735 2.74792483 -2.48464588 6 -7 6 C-6.34 4.35 -5.68 2.7 -5 1 C-3.35 1.33 -1.7 1.66 0 2 C0 1.34 0 0.68 0 0 Z " fill="#B60916" transform="translate(81,181)"/>
<path d="M0 0 C0.66 0.33 1.32 0.66 2 1 C2 2.32 2 3.64 2 5 C3.32 5.66 4.64 6.32 6 7 C1.82412255 8.39195915 -0.13474776 6.82323219 -4 5 C-3.01 4.67 -2.02 4.34 -1 4 C-0.26676204 1.98491642 -0.26676204 1.98491642 0 0 Z " fill="#BF081A" transform="translate(428,178)"/>
<path d="M0 0 C3 3.36 3 3.36 3 6.125 C1.57671052 8.79366778 -0.19124829 9.1357687 -3 10 C-2.39009109 6.44219804 -1.4216319 3.3171411 0 0 Z " fill="#B40A1D" transform="translate(66,166)"/>
<path d="M0 0 C3.4375 0.8125 3.4375 0.8125 7 2 C7.33 2.99 7.66 3.98 8 5 C9.29355827 6.37195574 10.62298702 7.71182656 12 9 C7.09198451 7.51272258 3.59508707 4.55364515 0 1 C0 0.67 0 0.34 0 0 Z " fill="#A80D1C" transform="translate(735,170)"/>
<path d="M0 0 C5.20540698 0.96396425 9.59913433 1.87680501 14 5 C11.21176345 6.0326802 10.1322726 6.04509293 7.25 5.0625 C6.5075 4.711875 5.765 4.36125 5 4 C5 3.34 5 2.68 5 2 C3.35 1.67 1.7 1.34 0 1 C0 0.67 0 0.34 0 0 Z " fill="#B00C1D" transform="translate(601,57)"/>
<path d="M0 0 C2.4375 1.1875 2.4375 1.1875 5 3 C5.8125 5.6875 5.8125 5.6875 6 8 C5.01 8.495 5.01 8.495 4 9 C4 7.35 4 5.7 4 4 C2.35 4.33 0.7 4.66 -1 5 C-0.67 3.35 -0.34 1.7 0 0 Z " fill="#B3081B" transform="translate(499,157)"/>
<path d="M0 0 C0.33 0 0.66 0 1 0 C0.53411505 5.70709064 -0.93757784 9.15939723 -4 14 C-5.305239 10.08428299 -4.32239848 8.96107003 -2.5625 5.3125 C-2.08941406 4.31863281 -1.61632812 3.32476562 -1.12890625 2.30078125 C-0.75636719 1.54152344 -0.38382812 0.78226562 0 0 Z " fill="#A30817" transform="translate(86,120)"/>
<path d="M0 0 C1.32 0.33 2.64 0.66 4 1 C4 4.3 4 7.6 4 11 C0 5 0 5 0 0 Z " fill="#B20915" transform="translate(147,85)"/>
<path d="M0 0 C5.28497409 -0.44041451 5.28497409 -0.44041451 8 0 C10.5 2.5 10.5 2.5 12 5 C7.43545749 4.45660208 4.0271824 3.20536179 0 1 C0 0.67 0 0.34 0 0 Z " fill="#B50717" transform="translate(461,85)"/>
<path d="M0 0 C0.33 0.66 0.66 1.32 1 2 C0.22265625 3.7265625 0.22265625 3.7265625 -0.9375 5.625 C-1.618125 6.73875 -2.29875 7.8525 -3 9 C-3.99 8.67 -4.98 8.34 -6 8 C-4.26440562 4.942048 -2.61527381 2.36620011 0 0 Z " fill="#B4081C" transform="translate(563,65)"/>
<path d="M0 0 C-0.5775 0.268125 -1.155 0.53625 -1.75 0.8125 C-4.06163244 1.93012871 -4.06163244 1.93012871 -6 3.6875 C-8 5 -8 5 -10.25 4.6875 C-10.8275 4.460625 -11.405 4.23375 -12 4 C-4.17391304 -1.39130435 -4.17391304 -1.39130435 0 0 Z " fill="#AF081B" transform="translate(577,60)"/>
<path d="M0 0 C1.625 1.625 1.625 1.625 3 4 C2.1875 7.25 2.1875 7.25 1 10 C0.01 9.34 -0.98 8.68 -2 8 C-1.34 5.36 -0.68 2.72 0 0 Z " fill="#C20816" transform="translate(154,25)"/>
<path d="M0 0 C4 1 4 1 4 1 Z M-2 1 C-1.01 1.33 -0.02 1.66 1 2 C1 3.32 1 4.64 1 6 C-2 8 -2 8 -5 8 C-5 7.34 -5 6.68 -5 6 C-3.68 5.67 -2.36 5.34 -1 5 C-1.33 3.68 -1.66 2.36 -2 1 Z " fill="#C20616" transform="translate(491,171)"/>
<path d="M0 0 C7.875 0.875 7.875 0.875 9 2 C11.32817964 2.36760731 13.6618385 2.70241581 16 3 C16 3.33 16 3.66 16 4 C9.86946489 4.32712342 5.37330889 4.39366878 0 1 C0 0.67 0 0.34 0 0 Z " fill="#B00918" transform="translate(439,159)"/>
<path d="M0 0 C1.79068573 2.6860286 2.66055791 4.6626589 3.625 7.6875 C3.88539063 8.49574219 4.14578125 9.30398437 4.4140625 10.13671875 C4.60742188 10.75160156 4.80078125 11.36648437 5 12 C4.34 12 3.68 12 3 12 C0.58314288 7.77050005 -0.34833144 4.87664009 0 0 Z " fill="#AD0C17" transform="translate(209,152)"/>
<path d="M0 0 C0.33 1.65 0.66 3.3 1 5 C0.401875 4.835 -0.19625 4.67 -0.8125 4.5 C-3.11344336 3.8885876 -3.11344336 3.8885876 -6 4 C-5.67 3.01 -5.34 2.02 -5 1 C-3 0 -3 0 0 0 Z " fill="#C80617" transform="translate(200,129)"/>
<path d="M0 0 C1.17369141 0.10054688 1.17369141 0.10054688 2.37109375 0.203125 C4.92212232 0.83974532 5.89857581 1.75971125 7.5625 3.75 C5.4160247 3.63655624 3.27029408 3.50893655 1.125 3.375 C-0.06996094 3.30539063 -1.26492188 3.23578125 -2.49609375 3.1640625 C-3.46675781 3.02742188 -4.43742187 2.89078125 -5.4375 2.75 C-5.7675 2.09 -6.0975 1.43 -6.4375 0.75 C-3.98972161 -0.4738892 -2.70359459 -0.266364 0 0 Z " fill="#C20615" transform="translate(282.4375,115.25)"/>
<path d="M0 0 C1.32 0.33 2.64 0.66 4 1 C4 4.63 4 8.26 4 12 C3.67 12 3.34 12 3 12 C2.01 8.04 1.02 4.08 0 0 Z " fill="#B00C1E" transform="translate(815,105)"/>
<path d="M0 0 C2.49505962 2.49505962 2.35948376 3.67328888 2.625 7.125 C2.69976563 8.03507812 2.77453125 8.94515625 2.8515625 9.8828125 C2.92503906 10.93082031 2.92503906 10.93082031 3 12 C2.01 12 1.02 12 0 12 C-1.00007341 8.8886605 -0.87515553 7.11166412 0 4 C0 2.68 0 1.36 0 0 Z " fill="#C10817" transform="translate(841,95)"/>
<path d="M0 0 C1.32 0 2.64 0 4 0 C2.70700306 2.88437779 1.34058637 4.87219421 -1 7 C-1 6.34 -1 5.68 -1 5 C-1.66 4.67 -2.32 4.34 -3 4 C-2.01 3.67 -1.02 3.34 0 3 C0 2.01 0 1.02 0 0 Z " fill="#B80816" transform="translate(748,97)"/>
<path d="M0 0 C2.31 1.98 4.62 3.96 7 6 C6.67 6.66 6.34 7.32 6 8 C3.5625 7.375 3.5625 7.375 1 6 C0.1875 2.875 0.1875 2.875 0 0 Z " fill="#B20C1C" transform="translate(616,63)"/>
<path d="M0 0 C1.32 0 2.64 0 4 0 C4 0.66 4 1.32 4 2 C4.66 2.33 5.32 2.66 6 3 C5.01 3.495 5.01 3.495 4 4 C3.34227572 7.02934491 3.34227572 7.02934491 3 10 C2.01 9.67 1.02 9.34 0 9 C0.66 9 1.32 9 2 9 C1.51515724 4.35413108 1.51515724 4.35413108 0 0 Z " fill="#C3041A" transform="translate(482,101)"/>
<path d="M0 0 C3.25 -0.3125 3.25 -0.3125 7 0 C9.5 2.3125 9.5 2.3125 11 5 C10.67 5.99 10.34 6.98 10 8 C9.46375 7.21625 8.9275 6.4325 8.375 5.625 C5.69757158 2.66573701 3.81566975 1.95391744 0 1 C0 0.67 0 0.34 0 0 Z " fill="#A30D1A" transform="translate(584,84)"/>
<path d="M0 0 C6.57142857 5 6.57142857 5 8 10 C7.01 9.67 6.02 9.34 5 9 C4.67 8.01 4.34 7.02 4 6 C3.01 5.67 2.02 5.34 1 5 C0.67 3.35 0.34 1.7 0 0 Z " fill="#AB0C1F" transform="translate(827,75)"/>
<path d="M0 0 C0 2 0 2 -1.125 3.625 C-3.75887944 5.55651159 -5.81916956 5.21205536 -9 5 C-6.45523312 2.20075644 -3.92372883 0 0 0 Z " fill="#B50918" transform="translate(338,31)"/>
<path d="M0 0 C2.6855594 2.6855594 3.06049974 5.37621328 4 9 C3.01 9 2.02 9 1 9 C-0.4783226 6.04335481 -0.06032783 3.25770263 0 0 Z " fill="#B10C1E" transform="translate(219,176)"/>
<path d="M0 0 C2.44897847 3.67346771 2.31537716 5.66356399 2 10 C1.34 10.66 0.68 11.32 0 12 C-1.03159626 8.90521121 -0.97482862 7.47368607 -0.5625 4.3125 C-0.46066406 3.50425781 -0.35882812 2.69601563 -0.25390625 1.86328125 C-0.17011719 1.24839844 -0.08632813 0.63351563 0 0 Z " fill="#AC0B18" transform="translate(819,118)"/>
<path d="M0 0 C2.97069541 2.54631035 4.4775751 5.42230149 6 9 C5.67 9.66 5.34 10.32 5 11 C4.67 9.68 4.34 8.36 4 7 C3.01 7 2.02 7 1 7 C0.67 4.69 0.34 2.38 0 0 Z " fill="#AB091F" transform="translate(503,85)"/>
<path d="M0 0 C1.15957207 3.47871621 0.77456651 4.34219645 -0.4375 7.6875 C-0.86869141 8.89986328 -0.86869141 8.89986328 -1.30859375 10.13671875 C-1.53675781 10.75160156 -1.76492187 11.36648437 -2 12 C-2.66 11.67 -3.32 11.34 -4 11 C-3.52269162 9.5410574 -3.04308958 8.08286504 -2.5625 6.625 C-2.29566406 5.81289062 -2.02882813 5.00078125 -1.75390625 4.1640625 C-1 2 -1 2 0 0 Z " fill="#AC0C1A" transform="translate(105,75)"/>
<path d="M0 0 C2.22825644 2.22825644 2.69239369 3.65761628 3.625 6.625 C4.01558594 7.85089844 4.01558594 7.85089844 4.4140625 9.1015625 C4.60742188 9.72804688 4.80078125 10.35453125 5 11 C4.34 11 3.68 11 3 11 C3 10.01 3 9.02 3 8 C2.34 8 1.68 8 1 8 C0.67 5.36 0.34 2.72 0 0 Z " fill="#AE0A17" transform="translate(166,53)"/>
<path d="M0 0 C3.3 0 6.6 0 10 0 C9.34 1.65 8.68 3.3 8 5 C7.34 5 6.68 5 6 5 C5.67 3.68 5.34 2.36 5 1 C3.35 1 1.7 1 0 1 C0 0.67 0 0.34 0 0 Z " fill="#CB010B" transform="translate(587,57)"/>
<path d="M0 0 C0.99 0.33 1.98 0.66 3 1 C0.47211993 3.79872437 -1.20411134 5.45773019 -5 6 C-5.33 5.01 -5.66 4.02 -6 3 C-4.02 2.67 -2.04 2.34 0 2 C0 1.34 0 0.68 0 0 Z " fill="#B7091A" transform="translate(288,178)"/>
<path d="M0 0 C2.64 0.33 5.28 0.66 8 1 C7.67 2.32 7.34 3.64 7 5 C3.34683329 3.75023244 2.21934164 3.32901247 0 0 Z " fill="#B70A18" transform="translate(331,179)"/>
<path d="M0 0 C-4.30769231 3.93846154 -4.30769231 3.93846154 -7.8125 4.25 C-8.534375 4.1675 -9.25625 4.085 -10 4 C-10 3.34 -10 2.68 -10 2 C-8.71211992 1.46987262 -7.41953322 0.9511671 -6.125 0.4375 C-5.40570312 0.14746094 -4.68640625 -0.14257812 -3.9453125 -0.44140625 C-2 -1 -2 -1 0 0 Z " fill="#AC091D" transform="translate(799,157)"/>
<path d="M0 0 C0.66 0.33 1.32 0.66 2 1 C2.73075648 3.3140622 3.40138258 5.64828869 4 8 C1.525 7.01 1.525 7.01 -1 6 C-0.67 4.02 -0.34 2.04 0 0 Z " fill="#B60718" transform="translate(157,152)"/>
<path d="M0 0 C1.32 0.33 2.64 0.66 4 1 C3.67 3.31 3.34 5.62 3 8 C2.01 7.67 1.02 7.34 0 7 C0 4.69 0 2.38 0 0 Z " fill="#BC071C" transform="translate(388,130)"/>
<path d="M0 0 C0.33 0.66 0.66 1.32 1 2 C0.67 2.66 0.34 3.32 0 4 C-0.66 4 -1.32 4 -2 4 C-2.33 5.65 -2.66 7.3 -3 9 C-3.99 8.67 -4.98 8.34 -6 8 C-4.625 5.5 -4.625 5.5 -3 3 C-2.34 3 -1.68 3 -1 3 C-0.67 2.01 -0.34 1.02 0 0 Z " fill="#AC0E1A" transform="translate(635,65)"/>
<path d="M0 0 C4.43090471 1.20842856 6.98112756 2.51668565 10 6 C5.16743695 5.58578031 3.17320782 3.53586014 0 0 Z " fill="#A70C19" transform="translate(680,61)"/>
<path d="M0 0 C-1.14453125 1.51953125 -1.14453125 1.51953125 -3 3 C-5.69921875 3.07421875 -5.69921875 3.07421875 -8.6875 2.6875 C-10.17830078 2.50767578 -10.17830078 2.50767578 -11.69921875 2.32421875 C-12.45847656 2.21722656 -13.21773437 2.11023437 -14 2 C-14 1.67 -14 1.34 -14 1 C-4.58997722 -0.14806378 -4.58997722 -0.14806378 0 0 Z " fill="#AA081F" transform="translate(260,56)"/>
<path d="M0 0 C2.64 0.33 5.28 0.66 8 1 C8 1.99 8 2.98 8 4 C2.25 2.25 2.25 2.25 0 0 Z M8 0 C10 1 10 1 10 1 Z " fill="#B60A19" transform="translate(747,179)"/>
<path d="M0 0 C2.0245738 1.93254772 3.42105792 3.63158688 5 6 C5 6.99 5 7.98 5 9 C4.34 9 3.68 9 3 9 C0 2.25 0 2.25 0 0 Z " fill="#B00A1B" transform="translate(300,127)"/>
<path d="M0 0 C3.26460973 1.80412643 4.88929795 2.83394693 7 6 C4.69 5.67 2.38 5.34 0 5 C0.66 4.67 1.32 4.34 2 4 C2 3.34 2 2.68 2 2 C1.34 2 0.68 2 0 2 C0 1.34 0 0.68 0 0 Z " fill="#B3091B" transform="translate(291,119)"/>
<path d="M0 0 C0.33 0 0.66 0 1 0 C1.125 5.75 1.125 5.75 0 8 C-0.99 7.67 -1.98 7.34 -3 7 C-2.01 4.69 -1.02 2.38 0 0 Z " fill="#BE0615" transform="translate(89,113)"/>
<path d="M0 0 C1.32 0.33 2.64 0.66 4 1 C4 1.66 4 2.32 4 3 C2.03852126 4.38938077 0.03833424 5.7260411 -2 7 C-1.34 4.69 -0.68 2.38 0 0 Z " fill="#A80917" transform="translate(499,165)"/>
<path d="M0 0 C2.61527381 2.36620011 4.26440562 4.942048 6 8 C4.35 7.67 2.7 7.34 1 7 C0.67 4.69 0.34 2.38 0 0 Z " fill="#AF081C" transform="translate(419,141)"/>
<path d="M0 0 C2 2 2 2 2.125 4.625 C2.08375 5.40875 2.0425 6.1925 2 7 C1.01 7.33 0.02 7.66 -1 8 C-0.67 5.36 -0.34 2.72 0 0 Z " fill="#C3061C" transform="translate(747,140)"/>
<path d="M0 0 C2.31 0.66 4.62 1.32 7 2 C6.67 2.99 6.34 3.98 6 5 C5.01 5 4.02 5 3 5 C3 4.01 3 3.02 3 2 C2.01 2 1.02 2 0 2 C0 1.34 0 0.68 0 0 Z " fill="#C50614" transform="translate(599,57)"/>
<path d="" fill="#000000" transform="translate(0,0)"/>
<path d="" fill="#000000" transform="translate(0,0)"/>
<path d="" fill="#000000" transform="translate(0,0)"/>
<path d="" fill="#000000" transform="translate(0,0)"/>
</svg>
